<svg xmlns="http://www.w3.org/2000/svg" viewBox="0 0 1920 560.6"><defs><style>.cls-1{fill:#fff;}.cls-2{fill:#206dad;}.cls-3{fill:#244572;}.cls-4{fill:#36a8df;}.cls-5{fill:#2a60d8;}.cls-6,.cls-7{fill:none;stroke:#2a60d8;stroke-miterlimit:10;}.cls-7{stroke-width:3px;}</style></defs><g id="レイヤー_2" data-name="レイヤー 2"><g id="レイヤー_1-2" data-name="レイヤー 1"><rect class="cls-1" width="1920" height="560.6"/><polygon class="cls-2" points="428.73 72.82 428.73 89.98 377.26 89.98 377.26 158.62 360.1 158.62 360.1 72.82 428.73 72.82"/><polygon class="cls-3" points="396.93 64.68 445.46 113.21 409.06 149.6 396.93 137.47 421.19 113.21 384.8 76.81 396.93 64.68"/><rect class="cls-4" x="377.26" y="158.62" width="17.16" height="17.16"/><path d="M478.4,101.12h4.89q3.52,0,5.13,1.78c1.08,1.2,1.61,3.11,1.61,5.71q0,5.49-3.23,7.1a11.75,11.75,0,0,1-4.69.73v12.22H478.4Zm3.71,12.14a4.3,4.3,0,0,0,3.18-.92,4.92,4.92,0,0,0,.89-3.36,6,6,0,0,0-.86-3.6,3.15,3.15,0,0,0-2.69-1.14h-.52Z"/><path d="M496.81,101.12h2.89l5.9,27.54h-3.67l-1-5.37h-5.46l-1.05,5.37h-3.56Zm3.55,19.3-.82-4.39q-.82-4.47-1.34-9.56c-.17,1.65-.38,3.33-.64,5s-.57,3.49-.93,5.4l-.68,3.53Z"/><path d="M521.56,115.57q0,7.29-1.62,10.36A5.67,5.67,0,0,1,514.5,129a5.79,5.79,0,0,1-5.65-3.3q-1.64-3.24-1.63-11.47,0-7.35,1.61-10.4a5.71,5.71,0,0,1,5.49-3.07,5.87,5.87,0,0,1,5.14,2.37,11.21,11.21,0,0,1,1.6,4.52,46.09,46.09,0,0,1,.5,7.92m-3.88.39q0-7.15-.65-9.49c-.42-1.57-1.3-2.35-2.62-2.35a2.63,2.63,0,0,0-2.64,2.15c-.43,1.45-.64,4.37-.64,8.74a34.88,34.88,0,0,0,.68,8.39,2.66,2.66,0,0,0,2.6,2.21,2.6,2.6,0,0,0,2.57-2.07,27.52,27.52,0,0,0,.7-7.58"/><path d="M544,101.71v3.62a5.4,5.4,0,0,0-3.05-1.21,3.07,3.07,0,0,0-2.39,1,3.64,3.64,0,0,0-.92,2.62,4.52,4.52,0,0,0,.66,2.48,9.9,9.9,0,0,0,1.11,1.43q.78.87,2,2.1a16.34,16.34,0,0,1,3.08,4,8.71,8.71,0,0,1,.82,4,7.72,7.72,0,0,1-1.8,5.26,5.92,5.92,0,0,1-4.62,2,6.4,6.4,0,0,1-4.05-1.3V124a6.32,6.32,0,0,0,3.61,1.44,2.92,2.92,0,0,0,2.37-1,4.08,4.08,0,0,0,.86-2.73A5.62,5.62,0,0,0,541,119a12.9,12.9,0,0,0-1-1.31c-.4-.49-.91-1-1.52-1.65-.94-.92-1.71-1.74-2.33-2.46a11.84,11.84,0,0,1-1.38-1.87,8.23,8.23,0,0,1-.85-4,7.48,7.48,0,0,1,1.67-5.12,5.8,5.8,0,0,1,4.55-1.91,8,8,0,0,1,3.78.95"/><polygon points="546.21 101.14 558.28 101.14 558.28 104.38 554.13 104.38 554.13 128.67 550.49 128.67 550.49 104.38 546.21 104.38 546.21 101.14"/><path d="M564.26,101.14h2.89l5.9,27.53h-3.67l-1-5.36h-5.45l-1.06,5.36h-3.56Zm3.55,19.29-.82-4.38c-.55-3-1-6.17-1.34-9.56-.17,1.65-.38,3.32-.64,5s-.57,3.49-.93,5.39l-.68,3.53Z"/><polygon points="575.23 101.14 585.14 101.14 585.14 104.28 578.94 104.28 578.94 112.98 584.54 112.98 584.54 116.12 578.94 116.12 578.94 128.67 575.23 128.67 575.23 101.14"/><polygon points="588 101.14 597.91 101.14 597.91 104.28 591.71 104.28 591.71 112.98 597.31 112.98 597.31 116.12 591.71 116.12 591.71 128.67 588 128.67 588 101.14"/><path d="M619.19,101.73v3.62a5.42,5.42,0,0,0-3.05-1.22,3.08,3.08,0,0,0-2.39,1,3.64,3.64,0,0,0-.92,2.62,4.52,4.52,0,0,0,.66,2.48,10.49,10.49,0,0,0,1.11,1.43q.78.87,2,2.1a16.15,16.15,0,0,1,3.08,4,8.67,8.67,0,0,1,.82,4,7.75,7.75,0,0,1-1.8,5.27,5.92,5.92,0,0,1-4.62,2,6.4,6.4,0,0,1-4.05-1.3v-3.68a6.28,6.28,0,0,0,3.61,1.45,3,3,0,0,0,2.37-1,4.08,4.08,0,0,0,.85-2.74,5.5,5.5,0,0,0-.66-2.69,10.48,10.48,0,0,0-.94-1.31c-.4-.49-.91-1-1.52-1.65-.94-.93-1.71-1.75-2.33-2.46a11.84,11.84,0,0,1-1.38-1.87,8.23,8.23,0,0,1-.85-4,7.48,7.48,0,0,1,1.67-5.12,5.8,5.8,0,0,1,4.55-1.91,8,8,0,0,1,3.78,1"/><polygon points="623.63 101.15 633.5 101.15 633.5 104.29 627.34 104.29 627.34 113.01 632.8 113.01 632.8 116.15 627.34 116.15 627.34 125.55 633.5 125.55 633.5 128.69 623.63 128.69 623.63 101.15"/><path d="M636.9,101.15h4.89a6.23,6.23,0,0,1,4.51,1.45q1.88,1.88,1.87,5.72a10,10,0,0,1-1,4.76,4.31,4.31,0,0,1-2.83,2.22l5.06,13.39h-3.76l-5-13.48v13.48H636.9Zm3.71,12.2a4,4,0,0,0,3-1,5,5,0,0,0,.89-3.38,11.51,11.51,0,0,0-.18-2.19,4,4,0,0,0-.59-1.48,2.37,2.37,0,0,0-1-.84,3.79,3.79,0,0,0-1.5-.27h-.63Z"/><path d="M650.1,101.15h3.66l1.66,10.17.28,1.84.59,4c.09.68.18,1.3.26,1.86s.14,1.06.2,1.51l.18,1.36c0-.27.07-.52.09-.73s.05-.39.07-.54l.48-3.19.63-4.19c.06-.38.11-.73.17-1s.1-.61.15-.86l1.78-10.17h3.46l-5.4,27.54h-2.94Z"/><rect x="665.8" y="101.15" width="3.71" height="27.54"/><path d="M684.56,101.6v3.34a5.66,5.66,0,0,0-2.39-.7,3.94,3.94,0,0,0-2.27.65,4.67,4.67,0,0,0-1.56,2,12.84,12.84,0,0,0-.91,3.43,36.63,36.63,0,0,0-.29,4.91q0,10.22,5.22,10.21a5.63,5.63,0,0,0,2.2-.57v3.4a6,6,0,0,1-3,.75q-8.37,0-8.36-13.66,0-7.38,2-11a6.71,6.71,0,0,1,6.25-3.6,6.34,6.34,0,0,1,3.07.82"/><polygon points="687.68 101.15 697.54 101.15 697.54 104.29 691.39 104.29 691.39 113.01 696.85 113.01 696.85 116.15 691.39 116.15 691.39 125.55 697.54 125.55 697.54 128.69 687.68 128.69 687.68 101.15"/><path class="cls-5" d="M749.28,512.62c0-3.79,2.22-6.1,5.2-6.1A4.38,4.38,0,0,1,757.7,508l-.81,1a3.17,3.17,0,0,0-2.4-1.12c-2.22,0-3.69,1.82-3.69,4.75s1.41,4.82,3.65,4.82a3.58,3.58,0,0,0,2.72-1.31l.81.93a4.54,4.54,0,0,1-3.6,1.68C751.47,518.69,749.28,516.43,749.28,512.62Z"/><path class="cls-5" d="M759.37,514.14c0-2.9,1.91-4.58,4-4.58s4,1.68,4,4.58-1.91,4.55-4,4.55S759.37,517,759.37,514.14Zm6.56,0c0-2-1-3.36-2.52-3.36s-2.52,1.36-2.52,3.36,1,3.33,2.52,3.33S765.93,516.14,765.93,514.14Z"/><path class="cls-5" d="M769.72,509.79h1.2l.13,1h.05a4.63,4.63,0,0,1,2.77-1.22c2.24,0,3.46,1.76,3.46,4.44,0,3-1.78,4.69-3.78,4.69a3.9,3.9,0,0,1-2.4-1l0,1.52v2.94h-1.46Zm6.09,4.22c0-1.92-.64-3.21-2.29-3.21a3.6,3.6,0,0,0-2.34,1.2v4.56a3.36,3.36,0,0,0,2.13.91C774.75,517.47,775.81,516.17,775.81,514Z"/><path class="cls-5" d="M778.7,522.05l.29-1.17a2.14,2.14,0,0,0,.65.14c1,0,1.62-.8,2-1.87l.19-.65-3.48-8.71h1.52l1.77,4.83c.26.75.56,1.65.84,2.43h.08c.23-.78.49-1.66.73-2.43l1.55-4.83h1.43L783,519.2c-.59,1.71-1.51,3-3.24,3A2.71,2.71,0,0,1,778.7,522.05Z"/><path class="cls-5" d="M787.92,509.79h1.2l.12,1.58h0a3,3,0,0,1,2.47-1.81,1.83,1.83,0,0,1,.93.2l-.28,1.28a1.88,1.88,0,0,0-.84-.15c-.72,0-1.62.51-2.2,2v5.59h-1.45Z"/><path class="cls-5" d="M793.88,507a1,1,0,1,1,1,1A.92.92,0,0,1,793.88,507Zm.24,2.77h1.46v8.69h-1.46Z"/><path class="cls-5" d="M797.87,520.14a2.41,2.41,0,0,1,1.28-2v-.07a1.55,1.55,0,0,1-.8-1.42,2.14,2.14,0,0,1,1-1.62V515a3.07,3.07,0,0,1,2.13-5.45,3.68,3.68,0,0,1,1.22.23h3v1.12h-1.77a2.5,2.5,0,0,1,.7,1.79,3,3,0,0,1-3.17,3,3,3,0,0,1-1.29-.31,1.29,1.29,0,0,0-.56,1c0,.56.35.95,1.52.95h1.69c2,0,3,.64,3,2.06,0,1.62-1.71,3-4.4,3C799.32,522.48,797.87,521.65,797.87,520.14Zm6.56-.44c0-.8-.62-1.08-1.78-1.08h-1.5a4.63,4.63,0,0,1-1.12-.14,1.8,1.8,0,0,0-.88,1.47c0,.93.94,1.54,2.51,1.54S804.43,520.61,804.43,519.7Zm-1.12-7a1.86,1.86,0,1,0-3.71,0,1.87,1.87,0,1,0,3.71,0Z"/><path class="cls-5" d="M807.53,505.74H809v3.49l0,1.79a4.09,4.09,0,0,1,2.88-1.46c1.83,0,2.66,1.19,2.66,3.41v5.51H813v-5.31c0-1.64-.49-2.33-1.65-2.33a3.31,3.31,0,0,0-2.38,1.33v6.31h-1.46Z"/><path class="cls-5" d="M817.5,515.79V511h-1.3v-1.1l1.36-.08.18-2.45H819v2.45h2.35V511H819v4.85c0,1.07.33,1.68,1.34,1.68a3.15,3.15,0,0,0,1-.22l.29,1.09a5.48,5.48,0,0,1-1.6.32C818.12,518.69,817.5,517.52,817.5,515.79Z"/><path class="cls-5" d="M826.27,512.7a5.78,5.78,0,1,1,5.78,6A5.67,5.67,0,0,1,826.27,512.7Zm10.72,0a4.95,4.95,0,1,0-9.89,0,5,5,0,1,0,9.89,0Zm-8,0a3.26,3.26,0,0,1,3.3-3.38,2.94,2.94,0,0,1,2.22,1l-.61.71a2.12,2.12,0,0,0-1.56-.74,2.18,2.18,0,0,0-2.18,2.4c0,1.57.83,2.56,2.13,2.56a2.69,2.69,0,0,0,1.82-.8l.53.77a3.38,3.38,0,0,1-2.42,1A3.24,3.24,0,0,1,828.94,512.7Z"/><path class="cls-5" d="M843,517.62c3.44-3.43,5.37-5.48,5.37-7.35A2,2,0,0,0,846.2,508a3.34,3.34,0,0,0-2.43,1.36l-.85-.81a4.49,4.49,0,0,1,3.46-1.73,3.16,3.16,0,0,1,3.41,3.34c0,2.15-1.95,4.28-4.66,7.13.61-.05,1.31-.12,1.92-.12h3.32v1.27H843Z"/><path class="cls-5" d="M852,512.73c0-3.82,1.39-5.87,3.66-5.87s3.65,2.06,3.65,5.87-1.37,6-3.65,6S852,516.56,852,512.73Zm5.89,0c0-3.34-.9-4.7-2.23-4.7s-2.24,1.36-2.24,4.7.9,4.79,2.24,4.79S857.84,516.08,857.84,512.73Z"/><path class="cls-5" d="M860.75,517.62c3.44-3.43,5.37-5.48,5.37-7.35A2,2,0,0,0,864,508a3.34,3.34,0,0,0-2.43,1.36l-.85-.81a4.49,4.49,0,0,1,3.46-1.73,3.16,3.16,0,0,1,3.41,3.34c0,2.15-1.95,4.28-4.66,7.13.61-.05,1.31-.12,1.92-.12h3.32v1.27h-7.38Z"/><path class="cls-5" d="M870.33,517.26h2.61v-8.42h-2.08v-.94a6.9,6.9,0,0,0,2.43-.83h1.12v10.19h2.35v1.22h-6.43Z"/><path class="cls-5" d="M883,506.73h3.36c2.62,0,4.38.9,4.38,3.46s-1.74,3.63-4.32,3.63h-1.94v4.66H883Zm3.23,5.89c2.06,0,3-.75,3-2.43s-1-2.24-3.1-2.24h-1.69v4.67Z"/><path class="cls-5" d="M891.66,516.22c0-1.89,1.65-2.83,5.34-3.25,0-1.12-.36-2.19-1.79-2.19a4.75,4.75,0,0,0-2.61.93l-.57-1a6.54,6.54,0,0,1,3.42-1.14c2.11,0,3,1.43,3,3.57v5.35h-1.2l-.13-1h0a4.62,4.62,0,0,1-2.88,1.25A2.36,2.36,0,0,1,891.66,516.22Zm5.34.15v-2.44c-2.93.36-3.92,1.08-3.92,2.2s.68,1.39,1.54,1.39A3.53,3.53,0,0,0,897,516.37Z"/><path class="cls-5" d="M900.57,514.14c0-2.9,1.9-4.58,4-4.58s4,1.68,4,4.58-1.91,4.55-4,4.55S900.57,517,900.57,514.14Zm6.56,0c0-2-1-3.36-2.53-3.36s-2.51,1.36-2.51,3.36,1,3.33,2.51,3.33S907.13,516.14,907.13,514.14Z"/><path class="cls-5" d="M910,517.49l.72-1a4,4,0,0,0,2.57,1c1.15,0,1.72-.61,1.72-1.36,0-.9-1-1.28-2-1.65-1.22-.45-2.54-1-2.54-2.51s1.12-2.47,3-2.47a4.39,4.39,0,0,1,2.69,1l-.7.94a3.22,3.22,0,0,0-2-.76c-1.1,0-1.62.57-1.62,1.24,0,.84.9,1.14,1.88,1.51,1.26.48,2.65,1,2.65,2.64,0,1.41-1.12,2.58-3.17,2.58A5.21,5.21,0,0,1,910,517.49Z"/><path class="cls-5" d="M918.31,515.79V511H917v-1.1l1.36-.08.17-2.45h1.22v2.45h2.35V511h-2.35v4.85c0,1.07.34,1.68,1.35,1.68a3.15,3.15,0,0,0,1-.22l.29,1.09a5.55,5.55,0,0,1-1.6.32C918.94,518.69,918.31,517.52,918.31,515.79Z"/><path class="cls-5" d="M923.16,516.22c0-1.89,1.65-2.83,5.35-3.25,0-1.12-.37-2.19-1.79-2.19a4.72,4.72,0,0,0-2.61.93l-.58-1a6.55,6.55,0,0,1,3.43-1.14c2.11,0,3,1.43,3,3.57v5.35h-1.2l-.12-1h0a4.65,4.65,0,0,1-2.88,1.25A2.36,2.36,0,0,1,923.16,516.22Zm5.35.15v-2.44c-2.93.36-3.92,1.08-3.92,2.2s.67,1.39,1.53,1.39A3.57,3.57,0,0,0,928.51,516.37Z"/><path class="cls-5" d="M938.06,511h-3.63v7.51H933V511h-1.18v-1.1l1.18-.08v-1.17c0-1.79.9-2.91,2.71-2.91a4.2,4.2,0,0,1,1.58.3l-.3,1.12a2.77,2.77,0,0,0-1.17-.25c-.87,0-1.36.63-1.36,1.79v1.12h3.63V508.4c0-1.77.8-2.87,2.55-2.87a3.66,3.66,0,0,1,1.44.29l-.31,1.1a2.65,2.65,0,0,0-1-.22c-.83,0-1.23.59-1.23,1.71v1.38h1.84V511h-1.84v7.51h-1.46Z"/><path class="cls-5" d="M945.88,516.94l.9-1a4.55,4.55,0,0,0,3.23,1.46c1.54,0,2.47-.77,2.47-1.92s-.85-1.58-2-2.08l-1.69-.74a3.31,3.31,0,0,1-2.39-3c0-1.8,1.57-3.12,3.7-3.12A4.86,4.86,0,0,1,953.6,508l-.79.94a3.8,3.8,0,0,0-2.67-1.1c-1.33,0-2.19.67-2.19,1.73s1,1.57,1.93,1.95l1.68.72c1.36.59,2.42,1.39,2.42,3.14s-1.54,3.33-4,3.33A5.6,5.6,0,0,1,945.88,516.94Z"/><path class="cls-5" d="M955.5,514.14c0-2.82,1.9-4.58,3.92-4.58,2.21,0,3.46,1.6,3.46,4.09a5.86,5.86,0,0,1-.07.83H957a2.89,2.89,0,0,0,2.89,3,3.76,3.76,0,0,0,2.17-.69l.53,1a5.16,5.16,0,0,1-2.88.9C957.35,518.69,955.5,517,955.5,514.14Zm6.1-.72c0-1.74-.8-2.69-2.17-2.69a2.66,2.66,0,0,0-2.49,2.69Z"/><path class="cls-5" d="M965,509.79h1.2l.13,1.58h0a3,3,0,0,1,2.47-1.81,1.83,1.83,0,0,1,.93.2l-.28,1.28a1.88,1.88,0,0,0-.84-.15c-.72,0-1.62.51-2.2,2v5.59H965Z"/><path class="cls-5" d="M970.43,509.79H972l1.63,4.94c.27.85.54,1.75.81,2.56h.07c.27-.81.54-1.71.8-2.56l1.65-4.94h1.44l-3.09,8.69h-1.7Z"/><path class="cls-5" d="M979.79,507a1,1,0,0,1,2,0,1,1,0,1,1-2,0Zm.24,2.77h1.45v8.69H980Z"/><path class="cls-5" d="M983.77,514.14a4.23,4.23,0,0,1,4.19-4.58,3.71,3.71,0,0,1,2.55,1l-.75,1a2.6,2.6,0,0,0-1.73-.77c-1.59,0-2.74,1.36-2.74,3.36s1.09,3.33,2.69,3.33a3.11,3.11,0,0,0,2-.86l.64,1a4.21,4.21,0,0,1-2.82,1.11C985.55,518.69,983.77,517,983.77,514.14Z"/><path class="cls-5" d="M991.53,514.14c0-2.82,1.9-4.58,3.92-4.58,2.21,0,3.46,1.6,3.46,4.09a4.68,4.68,0,0,1-.07.83H993a2.87,2.87,0,0,0,2.88,3,3.74,3.74,0,0,0,2.17-.69l.53,1a5.13,5.13,0,0,1-2.88.9C993.39,518.69,991.53,517,991.53,514.14Zm6.1-.72c0-1.74-.8-2.69-2.16-2.69a2.67,2.67,0,0,0-2.5,2.69Z"/><path class="cls-5" d="M1004.76,506.73h1.49v11.75h-1.49Z"/><path class="cls-5" d="M1009.32,509.79h1.2l.13,1.25h.05a4.16,4.16,0,0,1,2.91-1.48c1.82,0,2.66,1.19,2.66,3.41v5.51h-1.46v-5.31c0-1.64-.5-2.33-1.65-2.33a3.31,3.31,0,0,0-2.38,1.33v6.31h-1.46Z"/><path class="cls-5" d="M1018.44,514.14a4.23,4.23,0,0,1,4.19-4.58,3.71,3.71,0,0,1,2.55,1l-.75,1a2.56,2.56,0,0,0-1.73-.77c-1.59,0-2.74,1.36-2.74,3.36s1.09,3.33,2.69,3.33a3.11,3.11,0,0,0,2.05-.86l.64,1a4.21,4.21,0,0,1-2.82,1.11C1020.22,518.69,1018.44,517,1018.44,514.14Z"/><path class="cls-5" d="M1026.94,517.58a1.06,1.06,0,1,1,1,1.11A1.06,1.06,0,0,1,1026.94,517.58Z"/><path class="cls-5" d="M1034.66,512.51c0-3.86,2.17-6.1,5.3-6.1s5.3,2.26,5.3,6.1-2.16,6.19-5.3,6.19S1034.66,516.35,1034.66,512.51Zm8.18,0c0-2.55-1.12-4.07-2.88-4.07s-2.88,1.52-2.88,4.07,1.12,4.14,2.88,4.14S1042.84,515,1042.84,512.51Z"/><path class="cls-5" d="M1047.29,515.12v-5.6h2.35v5.29c0,1.38.38,1.88,1.25,1.88a2.14,2.14,0,0,0,1.82-1.12v-6.05h2.36v9h-1.92l-.18-1.28h-.06a3.61,3.61,0,0,1-2.85,1.5C1048.12,518.7,1047.29,517.36,1047.29,515.12Z"/><path class="cls-5" d="M1057.58,509.52h1.92l.17,1.58h0a3.11,3.11,0,0,1,2.55-1.81,2.55,2.55,0,0,1,1,.19l-.4,2a2.85,2.85,0,0,0-.94-.15c-.71,0-1.55.47-2,1.76v5.35h-2.35Z"/><path class="cls-5" d="M1068.18,509.52h1.92l.18.92h0a4.25,4.25,0,0,1,2.64-1.15c2.21,0,3.52,1.81,3.52,4.56,0,3.08-1.84,4.85-3.81,4.85a3.32,3.32,0,0,1-2.22-1l.08,1.47v2.72h-2.36Zm5.89,4.37c0-1.72-.54-2.66-1.77-2.66a2.43,2.43,0,0,0-1.76.93v3.93a2.42,2.42,0,0,0,1.61.68C1073.24,516.77,1074.07,515.84,1074.07,513.89Z"/><path class="cls-5" d="M1078.49,509.52h1.92l.17,1.58h.05a3.11,3.11,0,0,1,2.55-1.81,2.55,2.55,0,0,1,1,.19l-.4,2a2.85,2.85,0,0,0-.94-.15c-.71,0-1.55.47-2.05,1.76v5.35h-2.35Z"/><path class="cls-5" d="M1085.27,506.78a1.37,1.37,0,1,1,1.38,1.3A1.26,1.26,0,0,1,1085.27,506.78Zm.19,2.74h2.36v9h-2.36Z"/><path class="cls-5" d="M1089.29,509.52h2.37L1093,514c.24.88.48,1.81.72,2.72h.08c.24-.91.48-1.84.72-2.72l1.31-4.46h2.26l-3,9h-2.72Z"/><path class="cls-5" d="M1098.73,516.05c0-1.92,1.55-2.93,5.17-3.32-.05-.88-.43-1.55-1.54-1.55a5.12,5.12,0,0,0-2.47.85l-.84-1.55a7.09,7.09,0,0,1,3.74-1.19c2.28,0,3.44,1.36,3.44,4v5.23h-1.92l-.16-1h-.06a4.23,4.23,0,0,1-2.71,1.18A2.54,2.54,0,0,1,1098.73,516.05Zm5.17-.07v-1.81c-2.2.28-2.93.88-2.93,1.68s.49,1,1.18,1A2.46,2.46,0,0,0,1103.9,516Z"/><path class="cls-5" d="M1108.07,514a4.48,4.48,0,0,1,4.58-4.71,3.94,3.94,0,0,1,2.61,1l-1.12,1.52a2.07,2.07,0,0,0-1.36-.59c-1.38,0-2.31,1.11-2.31,2.79s1,2.78,2.23,2.78a2.74,2.74,0,0,0,1.74-.72l1,1.56a4.55,4.55,0,0,1-3,1.08C1110,518.7,1108.07,517,1108.07,514Z"/><path class="cls-5" d="M1116.66,521.91l.43-1.81a2.84,2.84,0,0,0,.63.11,1.72,1.72,0,0,0,1.68-1.36l.16-.53-3.49-8.8h2.37l1.42,4.16c.28.8.5,1.66.76,2.53h.08c.2-.84.43-1.7.64-2.53l1.23-4.16h2.26l-3.19,9.23c-.78,2.11-1.74,3.33-3.75,3.33A3.88,3.88,0,0,1,1116.66,521.91Z"/><path class="cls-5" d="M1130.12,506.62H1134c2.62,0,4.64.93,4.64,3.73s-2,3.92-4.58,3.92h-1.58v4.21h-2.37Zm3.79,5.78c1.64,0,2.42-.69,2.42-2s-.86-1.84-2.5-1.84h-1.34v3.89Z"/><path class="cls-5" d="M1139.64,514a4.32,4.32,0,1,1,4.3,4.7A4.37,4.37,0,0,1,1139.64,514Zm6.21,0c0-1.68-.69-2.79-1.91-2.79s-1.9,1.11-1.9,2.79.69,2.78,1.9,2.78S1145.85,515.69,1145.85,514Z"/><path class="cls-5" d="M1150.21,516V505.71h2.36v10.35c0,.55.24.72.46.72a1.39,1.39,0,0,0,.32,0l.29,1.75a3.22,3.22,0,0,1-1.22.2C1150.79,518.7,1150.21,517.63,1150.21,516Z"/><path class="cls-5" d="M1155.06,506.78a1.37,1.37,0,1,1,1.38,1.3A1.26,1.26,0,0,1,1155.06,506.78Zm.19,2.74h2.36v9h-2.36Z"/><path class="cls-5" d="M1159.56,514a4.47,4.47,0,0,1,4.58-4.71,3.94,3.94,0,0,1,2.61,1l-1.13,1.52a2,2,0,0,0-1.36-.59c-1.37,0-2.3,1.11-2.3,2.79s.94,2.78,2.22,2.78a2.78,2.78,0,0,0,1.75-.72l.94,1.56a4.5,4.5,0,0,1-2.94,1.08C1161.45,518.7,1159.56,517,1159.56,514Z"/><path class="cls-5" d="M1168.15,521.91l.43-1.81a2.84,2.84,0,0,0,.63.11,1.72,1.72,0,0,0,1.68-1.36l.16-.53-3.49-8.8h2.37l1.42,4.16c.27.8.5,1.66.75,2.53h.08c.21-.84.44-1.7.64-2.53l1.24-4.16h2.25l-3.18,9.23c-.79,2.11-1.75,3.33-3.75,3.33A3.83,3.83,0,0,1,1168.15,521.91Z"/><path class="cls-5" d="M1176.68,517.17a1.47,1.47,0,1,1,2.93,0,1.47,1.47,0,1,1-2.93,0Z"/><path class="cls-5" d="M372.35,280H361.62v-1.46h10.73Zm0,3.44h-4.57v6.48h-1.6v-6.48h-4.56V282h10.73Z"/><path class="cls-5" d="M375.24,288.58h2.57v-7.87H375.7v-1.17a7,7,0,0,0,2.56-.9h1.39v9.94H382v1.52h-6.72Z"/><path class="cls-5" d="M383.73,284.32c0-3.85,1.47-5.9,3.81-5.9s3.81,2.06,3.81,5.9-1.46,6-3.81,6S383.73,288.18,383.73,284.32Zm5.86,0c0-3.29-.85-4.45-2-4.45s-2.05,1.16-2.05,4.45.85,4.53,2.05,4.53S389.59,287.62,389.59,284.32Z"/><path class="cls-5" d="M393.48,288.58h2.57v-7.87h-2.11v-1.17a7,7,0,0,0,2.56-.9h1.39v9.94h2.31v1.52h-6.72Z"/><path class="cls-5" d="M402,284.9h4.23v1.36H402Z"/><path class="cls-5" d="M407.68,284.32c0-3.85,1.48-5.9,3.81-5.9s3.81,2.06,3.81,5.9-1.45,6-3.81,6S407.68,288.18,407.68,284.32Zm5.86,0c0-3.29-.85-4.45-2.05-4.45s-2.05,1.16-2.05,4.45.85,4.53,2.05,4.53S413.54,287.62,413.54,284.32Z"/><path class="cls-5" d="M416.8,284.32c0-3.85,1.48-5.9,3.81-5.9s3.81,2.06,3.81,5.9-1.45,6-3.81,6S416.8,288.18,416.8,284.32Zm5.86,0c0-3.29-.85-4.45-2.05-4.45s-2.05,1.16-2.05,4.45.85,4.53,2.05,4.53S422.66,287.62,422.66,284.32Z"/><path class="cls-5" d="M430.6,287.06h-5.11v-1.23l4.69-7.19h2.15v7h1.48v1.42h-1.48v3H430.6Zm0-1.42v-2.9c0-.64,0-1.67.08-2.31h-.07c-.28.58-.6,1.12-.94,1.72l-2.32,3.49Z"/><path class="cls-5" d="M439.72,287.06h-5.11v-1.23l4.69-7.19h2.15v7h1.48v1.42h-1.48v3h-1.73Zm0-1.42v-2.9c0-.64,0-1.67.08-2.31h-.07c-.28.58-.6,1.12-.94,1.72l-2.32,3.49Z"/><path class="cls-5" d="M370,310.56a15.16,15.16,0,0,0,5.5,3.32,6.22,6.22,0,0,0-1.07,1.28,16.28,16.28,0,0,1-5.6-3.91v4.1h-1.55v-4a16.32,16.32,0,0,1-5.51,3.82,7.63,7.63,0,0,0-1-1.25,14.93,14.93,0,0,0,5.37-3.33h-3.6v-5.92h4.76v-1.17h-6.12V302.1h6.12v-1.43h1.55v1.43h6.26v1.37h-6.26v1.17h5v5.92Zm-6-3.5h3.3v-1.28H364Zm0,2.37h3.3v-1.3H364Zm4.85-3.65v1.28h3.49v-1.28Zm3.49,2.35h-3.49v1.3h3.49Z"/><path class="cls-5" d="M381.13,311.24a14.58,14.58,0,0,1-3.13,3.55,8.27,8.27,0,0,0-1.21-.88,10.47,10.47,0,0,0,2.83-3.15Zm9.92-7.45H377.16v-1.42h6.11v-1.71h1.59v1.71h6.19ZM384.86,310v3.76c0,.8-.18,1.21-.79,1.42a9.56,9.56,0,0,1-2.88.21,6,6,0,0,0-.48-1.41c1,0,2,0,2.22,0s.37-.07.37-.27V310h-4.25v-4.87h10.24V310Zm-4.33-1.28h7.19V306.4h-7.19Zm7.78,2.08a28,28,0,0,1,2.95,3.41l-1.46.75a24.57,24.57,0,0,0-2.86-3.51Z"/><path class="cls-5" d="M401.35,301.68a19.08,19.08,0,0,1-2,3.73H401v1.3h-2.67c-.42.48-.86.94-1.31,1.37h3.34v7h-1.41v-.66h-3.17v.88h-1.34v-5.2c-.35.21-.7.43-1.09.64a7,7,0,0,0-.86-1.22,15.33,15.33,0,0,0,4-2.81h-3.6v-1.3h3v-1.68h-2.29v-1.28h2.29V300.8h1.37v1.65h1.84v.83a15.35,15.35,0,0,0,.95-2Zm-2.42,7.6h-3.17v1.32h3.17Zm0,3.93v-1.45h-3.17v1.45Zm-1.31-7.8a16.74,16.74,0,0,0,1.17-1.68h-1.57v1.68Zm9.91-3.22c-.62,1.51-1.42,3.33-2.14,4.77a5,5,0,0,1,1.88,3.76,2.46,2.46,0,0,1-.83,2.24,2.56,2.56,0,0,1-1.09.37,8.61,8.61,0,0,1-1.45,0,3.8,3.8,0,0,0-.4-1.44,7.18,7.18,0,0,0,1.2,0,1.48,1.48,0,0,0,.7-.18c.34-.19.45-.6.45-1.18a4.68,4.68,0,0,0-2-3.44c.59-1.25,1.24-2.91,1.69-4.18h-2.54v12.39h-1.46V301.57h4.63l.22-.07Z"/><path class="cls-5" d="M423.27,308.36h-6.41v7h-1.59v-7H409v-1.44h6.29v-3.54c-1.7.22-3.42.4-5,.54a5.27,5.27,0,0,0-.4-1.33,60.07,60.07,0,0,0,10.77-1.73l1.15,1.25a37.41,37.41,0,0,1-4.89,1v3.77h6.41Z"/><path class="cls-5" d="M430.36,301.28a24.2,24.2,0,0,1-1.62,3.11v10.94h-1.53v-8.75a16.3,16.3,0,0,1-1.93,2.1,8.47,8.47,0,0,0-.84-1.49,17.69,17.69,0,0,0,4.51-6.37Zm4.26,5.54c.51,3.92,1.47,6.56,3,6.74.4,0,.64-.87.78-2.68a4.43,4.43,0,0,0,1.24.82c-.37,2.9-1.11,3.68-2,3.63-2.67-.22-3.92-3.39-4.53-8.3l-3.5.44-.23-1.4,3.59-.45c-.13-1.46-.22-3-.29-4.71h1.51c0,1.6.12,3.12.25,4.5l4.69-.59.19,1.39Zm3.28-2.56a15.67,15.67,0,0,0-2.4-2.64l1.1-.71a15.48,15.48,0,0,1,2.48,2.56Z"/><path class="cls-5" d="M454.63,301.76v13.46H453.1v-1h-10v1h-1.47V301.76Zm-11.54,1.43v4h4.17v-4Zm0,9.55h4.17v-4.06h-4.17Zm10-9.55h-4.34v4h4.34Zm0,9.55v-4.06h-4.34v4.06Z"/><path class="cls-5" d="M471.32,314.53H459.06v.85h-1.47V301.6h13.35V303H459.06v10.08h12.26Zm-3.1-2.51a22.21,22.21,0,0,0-3-3.06,22.38,22.38,0,0,1-4.13,3.61,10.15,10.15,0,0,0-1.19-1.17A18.31,18.31,0,0,0,464,308c-1.17-.93-2.39-1.81-3.54-2.55l1-1c1.12.71,2.32,1.52,3.47,2.39a19.65,19.65,0,0,0,2.24-3.48l1.46.5a24.14,24.14,0,0,1-2.55,3.89,23.3,23.3,0,0,1,3.24,3.09Z"/><path class="cls-5" d="M480,312.39v2.94h-1.3v-2.65l-.53.12.08,1.08c-1.8.38-3.74.75-5.21,1.05l-.32-1.31c.64-.09,1.44-.24,2.32-.4v-4.67H473V307.3h2.12v-1.46h-1.46v-.51l-.3.3a4.46,4.46,0,0,0-.92-.92,10.87,10.87,0,0,0,2.74-4h1.15a18,18,0,0,1,2.39,2.88l-1,1.08a14.08,14.08,0,0,0-1.78-2.52,13.61,13.61,0,0,1-1.68,2.52h3.57v1.21h-1.54v1.46H478v1.25h-1.75V313l1.72-.34-.24-1.15,1-.18v-9.44l.6.22a10.35,10.35,0,0,0,1.84-1.49l1.15,1a16.21,16.21,0,0,1-2.29,1.46v1.58h1.81V306H480v1.84h1.81v1.3H480v2l2.19-.45.13,1.24Zm-5.91-3a14.38,14.38,0,0,1,.56,2.89l-1,.25a14.86,14.86,0,0,0-.5-2.93Zm2.44,2.58c.17-.75.44-1.95.54-2.75l1,.22c-.23.95-.47,2-.69,2.72Zm10.61-4a11.56,11.56,0,0,1-1.86,4.55,6.27,6.27,0,0,0,2.37,1.8,5.15,5.15,0,0,0-.9,1.11,7.08,7.08,0,0,1-2.35-1.86,8.66,8.66,0,0,1-2.7,1.83,5.27,5.27,0,0,0-.87-1.11,7.63,7.63,0,0,0,2.79-1.82,13.1,13.1,0,0,1-1.32-3.22l1.22-.29a9.27,9.27,0,0,0,1,2.4,8.74,8.74,0,0,0,1.09-2.43h-3.36v-1.23h3.86l.25,0Zm-3.52-4.31a5,5,0,0,1-1.27,3.76,5.61,5.61,0,0,0-1-.68,4,4,0,0,0,1.08-3.11v-2.19h3.57v3.76c0,.3,0,.5.05.54a.16.16,0,0,0,.15.07h.22a.31.31,0,0,0,.19,0c.05-.05.08-.14.1-.34s.05-.64.06-1.21a3,3,0,0,0,.9.46,8.36,8.36,0,0,1-.16,1.49.82.82,0,0,1-.4.53,1.42,1.42,0,0,1-.63.13H486a1.14,1.14,0,0,1-.8-.26c-.21-.22-.28-.5-.28-1.41v-2.48h-1.24Z"/><path class="cls-5" d="M488.71,313a44.44,44.44,0,0,0,3.1-5l1.17.94c-.88,1.67-2,3.56-2.9,5Zm3.07-7.72a16.22,16.22,0,0,0-2.78-2.51l1-1a17.14,17.14,0,0,1,2.85,2.37Zm2.53.53a30.6,30.6,0,0,0,2.27-5.09l1.64.48A49.23,49.23,0,0,1,496,305.7l4.74-.23a24.33,24.33,0,0,0-1.57-2l1.27-.56a19.1,19.1,0,0,1,3.15,4.53l-1.38.66a8,8,0,0,0-.64-1.28c-3.23.19-6.66.36-9,.51l-.13-1.47Zm-.3,3h8.21v6.47h-1.46v-.7H495.4v.75H494Zm1.39,1.43v2.93h5.36v-2.93Z"/><path class="cls-5" d="M512.15,312.37h-5.57v1.22h-1.26V301.44h6.83Zm-5.57-9.63v3.42h1.54v-3.42Zm0,8.32h1.54v-3.6h-1.54Zm4.27-8.32H509.3v3.42h1.55Zm0,8.32v-3.6H509.3v3.6Zm8.7-7.11h-2.16v9.59c0,.87-.2,1.31-.8,1.57a9.94,9.94,0,0,1-3.08.26,5.27,5.27,0,0,0-.51-1.49c1.06.05,2.14,0,2.46,0s.4-.09.4-.36V304h-3.39V302.5h7.08Z"/><path class="cls-5" d="M520.8,313c3.29-3.22,5.27-5.27,5.27-7.06a1.86,1.86,0,0,0-2-2.08,3.18,3.18,0,0,0-2.32,1.31l-1-1a4.62,4.62,0,0,1,3.58-1.76,3.29,3.29,0,0,1,3.56,3.45c0,2.1-1.91,4.21-4.36,6.77.6-.06,1.35-.11,1.92-.11h3v1.57H520.8Z"/><path class="cls-5" d="M530,308.9h4.23v1.36H530Z"/><path class="cls-5" d="M541.25,304.19h-5.53v-1.55h7.58v1.12c-2.7,3.38-3.2,5.88-3.39,10.34H538A16.6,16.6,0,0,1,541.25,304.19Z"/><path class="cls-5" d="M544.8,308.9H549v1.36H544.8Z"/><path class="cls-5" d="M551.14,312.58h2.58v-7.87H551.6v-1.17a7.07,7.07,0,0,0,2.57-.9h1.39v9.94h2.3v1.52h-6.72Z"/><path class="cls-5" d="M569,304.11a15.69,15.69,0,0,1-1.74,3.32c.56.45,1.7,1.47,2,1.76l-.88,1.21c-.32-.41-.93-1.12-1.46-1.68v6.63h-1.47v-5.73a12.83,12.83,0,0,1-1.91,1.63,6.54,6.54,0,0,0-.71-1.37,12.74,12.74,0,0,0,4.35-4.92h-3.78v-1.34h2.05v-2.95h1.47v2.95h1l.25-.05Zm8.5-.72v8.12h-1.42v-.58H574v4.42h-1.43v-4.42h-2v.66H569.3v-8.2h3.31v-2.7H574v2.7Zm-6.85,1.35v1.77h2v-1.77Zm2,4.85v-1.81h-2v1.81Zm1.43-4.85v1.77h2.05v-1.77Zm2.05,4.85v-1.81H574v1.81Z"/><path class="cls-5" d="M593,301.76v13.46h-1.54v-1h-10v1H580V301.76Zm-11.54,1.43v4h4.16v-4Zm0,9.55h4.16v-4.06h-4.16Zm10-9.55h-4.34v4h4.34Zm0,9.55v-4.06h-4.34v4.06Z"/><path class="cls-5" d="M596,302.3h1.85v11.8H596Z"/><path class="cls-5" d="M601,302.3h1.86v5.59h0l4.49-5.59h2.06l-3.65,4.57L610,314.1H608l-3.33-5.78-1.8,2.23v3.55H601Z"/><path class="cls-5" d="M614.18,303.44v3.35a44,44,0,0,0,5.84-1.88,8.12,8.12,0,0,0,1.56-.78l.7,1.62c-.53.2-1.17.49-1.68.68a61.46,61.46,0,0,1-6.42,2v3.27c0,.77.34,1,1.09,1.12a13.82,13.82,0,0,0,2,.11,26.87,26.87,0,0,0,5.52-.53v1.84a46.44,46.44,0,0,1-5.62.32,17.64,17.64,0,0,1-2.62-.16c-1.3-.24-2-.88-2-2.22v-8.76a9.59,9.59,0,0,0-.12-1.47h1.88A13.94,13.94,0,0,0,614.18,303.44Zm8.45.13-1,.45a19.74,19.74,0,0,0-1.28-2.21l1-.43A22.76,22.76,0,0,1,622.63,303.57Zm1.84-.69-1,.45a14.82,14.82,0,0,0-1.29-2.19l1-.44A20.3,20.3,0,0,1,624.47,302.88Z"/><path class="cls-5" d="M627.57,309.72a27.48,27.48,0,0,0,.47-6.39,4.87,4.87,0,0,0-.13-1.3h1.86a11,11,0,0,0-.08,1.28,35.25,35.25,0,0,1-.5,6.84,9,9,0,0,1-2.85,4.48l-1.54-1A7.4,7.4,0,0,0,627.57,309.72Zm4.73,3v-9.47a11.55,11.55,0,0,0-.1-1.29h1.86a9.14,9.14,0,0,0-.08,1.29v8.85a11.36,11.36,0,0,0,4.35-3.68l1,1.37a16.86,16.86,0,0,1-5.46,4.42,4.59,4.59,0,0,0-.61.4l-1.06-.88A4.24,4.24,0,0,0,632.3,312.74Z"/><path class="cls-5" d="M644.12,308.76c0-4.52,2.11-6.34,4.45-6.34a4,4,0,0,1,2.94,1.26l-1,1.12a2.52,2.52,0,0,0-1.85-.86c-1.49,0-2.74,1.12-2.82,4.48a3.56,3.56,0,0,1,2.56-1.38c2,0,3.31,1.17,3.31,3.54a3.52,3.52,0,0,1-3.52,3.73C645.94,314.31,644.12,312.53,644.12,308.76Zm1.76,1c.19,2.13,1,3.12,2.29,3.12,1,0,1.84-.86,1.84-2.32s-.71-2.19-2-2.19A2.75,2.75,0,0,0,645.88,309.78Z"/><path class="cls-5" d="M654,302.3h7v1.57h-5.12v3.6h4.36V309h-4.36v5.07H654Z"/><path class="cls-5" d="M364.05,345.87H360.6V344.3h8.78v1.57h-3.47V356.1h-1.86Z"/><path class="cls-5" d="M371.41,344.3h7v1.57h-5.11v3.28h4.32v1.57h-4.32v3.81h5.28v1.57h-7.14Z"/><path class="cls-5" d="M381,344.3h1.86v10.23h5v1.57H381Z"/><path class="cls-5" d="M392.74,350.32c0-3.85,1.47-5.9,3.81-5.9s3.81,2.06,3.81,5.9-1.46,6-3.81,6S392.74,354.18,392.74,350.32Zm5.86,0c0-3.29-.85-4.45-2.05-4.45s-2.05,1.16-2.05,4.45.85,4.53,2.05,4.53S398.6,353.62,398.6,350.32Z"/><path class="cls-5" d="M401.56,354.69l.89-1.18a3.83,3.83,0,0,0,2.79,1.29c1.33,0,2.24-.71,2.24-1.87s-.83-2.08-3.49-2.08v-1.36c2.32,0,3.09-.85,3.09-1.95a1.6,1.6,0,0,0-1.81-1.65,3.32,3.32,0,0,0-2.35,1.12l-1-1.15a4.87,4.87,0,0,1,3.37-1.44c2.12,0,3.6,1.08,3.6,3a2.77,2.77,0,0,1-2,2.68v.08a2.94,2.94,0,0,1,2.44,2.88c0,2.06-1.78,3.28-3.94,3.28A4.88,4.88,0,0,1,401.56,354.69Z"/><path class="cls-5" d="M411,350.9h4.22v1.36H411Z"/><path class="cls-5" d="M416.37,354.74l.88-1.2A3.77,3.77,0,0,0,420,354.8a2.23,2.23,0,0,0,2.34-2.35,2.11,2.11,0,0,0-2.24-2.3,3.1,3.1,0,0,0-1.89.67l-.89-.58.35-5.6h6v1.55h-4.37l-.27,3a3.56,3.56,0,0,1,5.2,3.17,3.81,3.81,0,0,1-4,3.92A5.2,5.2,0,0,1,416.37,354.74Z"/><path class="cls-5" d="M425.76,355C429,351.81,431,349.76,431,348a1.86,1.86,0,0,0-2-2.08,3.18,3.18,0,0,0-2.32,1.31l-1-1a4.62,4.62,0,0,1,3.58-1.76,3.29,3.29,0,0,1,3.56,3.45c0,2.1-1.91,4.21-4.36,6.77.59-.06,1.35-.11,1.92-.11h3v1.57h-7.61Z"/><path class="cls-5" d="M434.92,353.17a3.5,3.5,0,0,1,2.11-3v-.06a3.27,3.27,0,0,1-1.59-2.67,3.06,3.06,0,0,1,3.36-3,3,3,0,0,1,3.33,3.07,3.56,3.56,0,0,1-1.55,2.69v.08a3.32,3.32,0,0,1,2,3c0,1.74-1.54,3.09-3.81,3.09S434.92,355,434.92,353.17Zm5.9,0c0-1.36-1.3-1.82-2.9-2.48a2.86,2.86,0,0,0-1.37,2.31,2.05,2.05,0,0,0,2.24,2A1.81,1.81,0,0,0,440.82,353.17Zm-.24-5.57a1.72,1.72,0,0,0-1.81-1.85,1.6,1.6,0,0,0-1.68,1.68c0,1.23,1.12,1.77,2.43,2.28A2.85,2.85,0,0,0,440.58,347.6Z"/><path class="cls-5" d="M444.18,355.06l1-1.14a2.46,2.46,0,0,0,1.84.88c1.5,0,2.77-1.15,2.85-4.51a3.48,3.48,0,0,1-2.58,1.39c-2,0-3.31-1.16-3.31-3.53a3.52,3.52,0,0,1,3.5-3.73c2.26,0,4.08,1.77,4.08,5.57,0,4.51-2.12,6.32-4.45,6.32A3.88,3.88,0,0,1,444.18,355.06Zm3.44-4.7a2.75,2.75,0,0,0,2.21-1.43c-.21-2.11-1.07-3.09-2.32-3.09-1,0-1.81.85-1.81,2.31S446.37,350.36,447.62,350.36Z"/><path class="cls-5" d="M453.17,350.9h4.23v1.36h-4.23Z"/><path class="cls-5" d="M459,355.06l1-1.14a2.46,2.46,0,0,0,1.84.88c1.5,0,2.77-1.15,2.85-4.51a3.48,3.48,0,0,1-2.58,1.39c-2,0-3.31-1.16-3.31-3.53a3.52,3.52,0,0,1,3.5-3.73c2.26,0,4.09,1.77,4.09,5.57,0,4.51-2.13,6.32-4.45,6.32A3.89,3.89,0,0,1,459,355.06Zm3.44-4.7a2.75,2.75,0,0,0,2.21-1.43c-.21-2.11-1.07-3.09-2.32-3.09-1,0-1.81.85-1.81,2.31S461.2,350.36,462.45,350.36Z"/><path class="cls-5" d="M468.13,355.06l1-1.14a2.46,2.46,0,0,0,1.84.88c1.5,0,2.77-1.15,2.85-4.51a3.48,3.48,0,0,1-2.58,1.39c-2,0-3.31-1.16-3.31-3.53a3.52,3.52,0,0,1,3.5-3.73c2.26,0,4.09,1.77,4.09,5.57,0,4.51-2.13,6.32-4.45,6.32A3.89,3.89,0,0,1,468.13,355.06Zm3.44-4.7a2.75,2.75,0,0,0,2.21-1.43c-.21-2.11-1.07-3.09-2.32-3.09-1,0-1.81.85-1.81,2.31S470.32,350.36,471.57,350.36Z"/><path class="cls-5" d="M477.25,355.06l1-1.14a2.46,2.46,0,0,0,1.84.88c1.5,0,2.77-1.15,2.85-4.51a3.48,3.48,0,0,1-2.58,1.39c-2,0-3.31-1.16-3.31-3.53a3.52,3.52,0,0,1,3.5-3.73c2.26,0,4.09,1.77,4.09,5.57,0,4.51-2.13,6.32-4.45,6.32A3.89,3.89,0,0,1,477.25,355.06Zm3.44-4.7a2.75,2.75,0,0,0,2.21-1.43c-.21-2.11-1.07-3.09-2.32-3.09-1,0-1.81.85-1.81,2.31S479.44,350.36,480.69,350.36Z"/><path class="cls-5" d="M485.92,354.74l.88-1.2a3.77,3.77,0,0,0,2.76,1.26,2.22,2.22,0,0,0,2.33-2.35,2.11,2.11,0,0,0-2.24-2.3,3.1,3.1,0,0,0-1.89.67l-.89-.58.35-5.6h6v1.55h-4.37l-.27,3a3.56,3.56,0,0,1,5.2,3.17,3.81,3.81,0,0,1-4,3.92A5.21,5.21,0,0,1,485.92,354.74Z"/><path class="cls-5" d="M361.65,364.3h7v1.57h-5.12v3.6h4.35V371h-4.35v5.07h-1.86Z"/><path class="cls-5" d="M372.37,364.3h2.15l3.9,11.8h-2l-1-3.36h-4.09l-1,3.36h-1.89Zm-.57,7H375l-.46-1.58c-.4-1.28-.75-2.59-1.1-3.92h-.08c-.34,1.34-.71,2.64-1.09,3.92Z"/><path class="cls-5" d="M382.05,370l-3.17-5.72H381l1.42,2.77c.29.55.55,1.08.9,1.78h.08c.3-.7.53-1.23.8-1.78l1.39-2.77h2l-3.17,5.82,3.39,6h-2.06l-1.56-2.93c-.3-.61-.61-1.2-1-1.92h-.07c-.32.72-.62,1.31-.91,1.92l-1.51,2.93h-2Z"/><path class="cls-5" d="M392.31,370.32c0-3.85,1.47-5.9,3.81-5.9s3.81,2.06,3.81,5.9-1.46,6-3.81,6S392.31,374.18,392.31,370.32Zm5.86,0c0-3.29-.85-4.45-2.05-4.45s-2.05,1.16-2.05,4.45.85,4.53,2.05,4.53S398.17,373.62,398.17,370.32Z"/><path class="cls-5" d="M401.12,374.69l.9-1.18a3.82,3.82,0,0,0,2.78,1.29c1.33,0,2.25-.71,2.25-1.87s-.84-2.08-3.49-2.08v-1.36c2.32,0,3.09-.85,3.09-1.95a1.6,1.6,0,0,0-1.81-1.65,3.34,3.34,0,0,0-2.36,1.12l-1-1.15a4.91,4.91,0,0,1,3.38-1.44c2.11,0,3.6,1.08,3.6,3a2.77,2.77,0,0,1-2,2.68v.08A2.93,2.93,0,0,1,408.9,373c0,2.06-1.77,3.28-3.93,3.28A4.92,4.92,0,0,1,401.12,374.69Z"/><path class="cls-5" d="M410.55,370.9h4.22v1.36h-4.22Z"/><path class="cls-5" d="M415.94,374.74l.88-1.2a3.77,3.77,0,0,0,2.75,1.26,2.23,2.23,0,0,0,2.34-2.35,2.11,2.11,0,0,0-2.24-2.3,3.1,3.1,0,0,0-1.89.67l-.9-.58.36-5.6h6v1.55h-4.37l-.28,3a3.35,3.35,0,0,1,1.62-.4,3.3,3.3,0,0,1,3.59,3.57,3.81,3.81,0,0,1-4,3.92A5.2,5.2,0,0,1,415.94,374.74Z"/><path class="cls-5" d="M425.33,375c3.28-3.22,5.27-5.27,5.27-7.06a1.86,1.86,0,0,0-2-2.08,3.18,3.18,0,0,0-2.32,1.31l-1-1a4.59,4.59,0,0,1,3.58-1.76,3.29,3.29,0,0,1,3.55,3.45c0,2.1-1.9,4.21-4.35,6.77.59-.06,1.35-.11,1.92-.11h3v1.57h-7.6Z"/><path class="cls-5" d="M434.48,373.17a3.51,3.51,0,0,1,2.12-3v-.06a3.27,3.27,0,0,1-1.59-2.67,3.06,3.06,0,0,1,3.36-3,3,3,0,0,1,3.33,3.07,3.56,3.56,0,0,1-1.55,2.69v.08a3.31,3.31,0,0,1,2,3c0,1.74-1.53,3.09-3.81,3.09S434.48,375,434.48,373.17Zm5.91,0c0-1.36-1.3-1.82-2.9-2.48a2.86,2.86,0,0,0-1.37,2.31,2.05,2.05,0,0,0,2.24,2A1.81,1.81,0,0,0,440.39,373.17Zm-.24-5.57a1.73,1.73,0,0,0-1.81-1.85,1.6,1.6,0,0,0-1.68,1.68c0,1.23,1.12,1.77,2.43,2.28A2.85,2.85,0,0,0,440.15,367.6Z"/><path class="cls-5" d="M443.75,375.06l1-1.14a2.46,2.46,0,0,0,1.84.88c1.5,0,2.77-1.15,2.85-4.51a3.49,3.49,0,0,1-2.58,1.39c-2,0-3.32-1.16-3.32-3.53a3.53,3.53,0,0,1,3.51-3.73c2.26,0,4.08,1.77,4.08,5.57,0,4.51-2.13,6.32-4.45,6.32A3.85,3.85,0,0,1,443.75,375.06Zm3.44-4.7a2.77,2.77,0,0,0,2.21-1.43c-.21-2.11-1.08-3.09-2.32-3.09-1,0-1.81.85-1.81,2.31S445.94,370.36,447.19,370.36Z"/><path class="cls-5" d="M452.74,370.9H457v1.36h-4.22Z"/><path class="cls-5" d="M458.58,375.06l1-1.14a2.46,2.46,0,0,0,1.84.88c1.5,0,2.77-1.15,2.85-4.51a3.49,3.49,0,0,1-2.58,1.39c-2,0-3.31-1.16-3.31-3.53a3.52,3.52,0,0,1,3.5-3.73c2.26,0,4.08,1.77,4.08,5.57,0,4.51-2.12,6.32-4.45,6.32A3.87,3.87,0,0,1,458.58,375.06Zm3.44-4.7a2.77,2.77,0,0,0,2.21-1.43c-.21-2.11-1.07-3.09-2.32-3.09-1,0-1.81.85-1.81,2.31S460.77,370.36,462,370.36Z"/><path class="cls-5" d="M467.7,375.06l1-1.14a2.46,2.46,0,0,0,1.84.88c1.5,0,2.77-1.15,2.85-4.51a3.49,3.49,0,0,1-2.58,1.39c-2,0-3.31-1.16-3.31-3.53a3.52,3.52,0,0,1,3.5-3.73c2.26,0,4.08,1.77,4.08,5.57,0,4.51-2.12,6.32-4.45,6.32A3.88,3.88,0,0,1,467.7,375.06Zm3.44-4.7a2.75,2.75,0,0,0,2.21-1.43c-.21-2.11-1.07-3.09-2.32-3.09-1,0-1.81.85-1.81,2.31S469.89,370.36,471.14,370.36Z"/><path class="cls-5" d="M476.82,375.06l1-1.14a2.46,2.46,0,0,0,1.84.88c1.5,0,2.77-1.15,2.85-4.51a3.49,3.49,0,0,1-2.58,1.39c-2,0-3.31-1.16-3.31-3.53a3.52,3.52,0,0,1,3.5-3.73c2.26,0,4.08,1.77,4.08,5.57,0,4.51-2.13,6.32-4.45,6.32A3.85,3.85,0,0,1,476.82,375.06Zm3.44-4.7a2.77,2.77,0,0,0,2.21-1.43c-.21-2.11-1.07-3.09-2.32-3.09-1,0-1.81.85-1.81,2.31S479,370.36,480.26,370.36Z"/><path class="cls-5" d="M485.89,370.76c0-4.52,2.11-6.34,4.45-6.34a4,4,0,0,1,3,1.26l-1,1.12a2.54,2.54,0,0,0-1.86-.86c-1.49,0-2.74,1.12-2.82,4.48a3.58,3.58,0,0,1,2.56-1.38c2,0,3.32,1.17,3.32,3.54a3.52,3.52,0,0,1-3.52,3.73C487.72,376.31,485.89,374.53,485.89,370.76Zm1.76,1c.19,2.13,1,3.12,2.29,3.12,1,0,1.84-.86,1.84-2.32s-.7-2.19-1.95-2.19A2.75,2.75,0,0,0,487.65,371.78Z"/><line class="cls-6" x1="1034.55" y1="526.31" x2="1179.61" y2="526.31"/><path class="cls-5" d="M1105,103.78l-1.26-1.19c2.78-1,4.09-2.31,4.09-6.25v-.59h-3.93V98a13.44,13.44,0,0,0,.07,1.44h-1.65c0-.21.08-.82.08-1.44V95.75H1101c-.7,0-1.31,0-1.55.06V94.18a8.71,8.71,0,0,0,1.55.12h1.46V92.59a8.15,8.15,0,0,0-.09-1.19H1104a7.91,7.91,0,0,0-.09,1.19V94.3h3.93V92.58a10,10,0,0,0-.08-1.3h1.68a9.76,9.76,0,0,0-.09,1.3V94.3h1.4a9.17,9.17,0,0,0,1.49-.09v1.58c-.24,0-.76,0-1.47,0h-1.42v.5C1109.35,100.09,1108.49,102.22,1105,103.78Z"/><path class="cls-5" d="M1116.4,96.43h8.09c.71,0,1.29-.06,1.67-.09v1.85c-.33,0-1-.08-1.67-.08h-8.09c-.82,0-1.72,0-2.22.08V96.34C1114.67,96.37,1115.59,96.43,1116.4,96.43Z"/><path class="cls-5" d="M1131.35,93.07v3.11a40.29,40.29,0,0,0,5.43-1.74,9.38,9.38,0,0,0,1.45-.73l.65,1.5c-.49.19-1.09.46-1.56.64a59.18,59.18,0,0,1-6,1.88v3c0,.71.32.89,1,1a12,12,0,0,0,1.86.11,25.42,25.42,0,0,0,5.14-.49v1.71a44.54,44.54,0,0,1-5.23.29,15.52,15.52,0,0,1-2.44-.15c-1.2-.22-1.89-.81-1.89-2.06V93.07a9.41,9.41,0,0,0-.1-1.37h1.74C1131.4,92.1,1131.35,92.64,1131.35,93.07Zm7.86.12-1,.41a19.42,19.42,0,0,0-1.19-2l1-.4A21.72,21.72,0,0,1,1139.21,93.19Zm1.71-.64-1,.41a14.08,14.08,0,0,0-1.2-2l1-.41A19.15,19.15,0,0,1,1140.92,92.55Z"/><path class="cls-5" d="M1152.1,93.74a20.42,20.42,0,0,1-2.44,4.24,39.59,39.59,0,0,1,4.25,4.36l-1.31,1.16a33.47,33.47,0,0,0-3.94-4.35,19.49,19.49,0,0,1-5.73,4.29l-1.2-1.27a16.55,16.55,0,0,0,6.11-4.36,12.31,12.31,0,0,0,2.37-3.92h-5.46c-.58,0-1.39.07-1.63.09V92.29a14.43,14.43,0,0,0,1.63.11h5.51a4.46,4.46,0,0,0,1.3-.15l1,.71A4.62,4.62,0,0,0,1152.1,93.74Z"/><path class="cls-5" d="M1106.84,143.64c0,.2,0,.46,0,.72.13,2,.9,8.66,6.47,11.22a4.54,4.54,0,0,0-1.06,1.16c-3.6-1.74-5.25-5.15-6-8a12.32,12.32,0,0,1-5.72,8,4.83,4.83,0,0,0-1.15-1.09c6-3.17,5.86-10.07,6-12Z"/><path class="cls-5" d="M1119.85,151.8c-.32-.52-.94-1.4-1.5-2.12v7.21H1117v-6.53a13.68,13.68,0,0,1-2.12,3.94,7.92,7.92,0,0,0-.73-1.34,14.87,14.87,0,0,0,2.67-5.29h-2.2v-1.33H1117v-3.11h1.4v3.11h1.94v1.33h-1.94v.38c.58.57,2,2.16,2.34,2.56Zm8.08-4.13h-1.48v7.44c0,.87-.21,1.26-.74,1.48a7.61,7.61,0,0,1-2.69.27,6.61,6.61,0,0,0-.5-1.41c.9,0,1.83,0,2.1,0s.37-.09.37-.35V149.6a17.78,17.78,0,0,1-4.23,5,5.9,5.9,0,0,0-1-1.12,15.74,15.74,0,0,0,4.8-5.83h-3.78v-1.33H1125v-3.09h1.46v3.09h1.48Z"/><path class="cls-5" d="M1131.72,149.84a10.84,10.84,0,0,0-2.58-1.52l.75-1a11.43,11.43,0,0,1,2.64,1.4Zm1.28,2.08c-.68,1.58-1.56,3.38-2.33,4.78l-1.24-.82a45.11,45.11,0,0,0,2.5-4.79Zm-.53-6a10.68,10.68,0,0,0-2.58-1.62l.76-1a9.84,9.84,0,0,1,2.62,1.49Zm10.46,4.16c-.81.63-1.68,1.33-2.4,1.8a6.91,6.91,0,0,0,2.41,3.81,5.35,5.35,0,0,0-1,1.19c-2-1.58-2.83-4.51-3.27-8.12-.3.07-.58.15-.88.21v7.85h-1.31v-7.59l-.75.14a4,4,0,0,0-.37-1v.27c0,2.35-.23,5.83-2,8.27a3.46,3.46,0,0,0-1.07-.88c1.57-2.2,1.73-5.19,1.73-7.41v-4l1.19.34a29.13,29.13,0,0,0,5.71-1.78l1.18,1.08a37.3,37.3,0,0,1-6.76,1.91v2.1a27.31,27.31,0,0,0,6-1.76l1.09,1.07a21.53,21.53,0,0,1-2.65.9,22.32,22.32,0,0,0,.38,2.29,16,16,0,0,0,1.76-1.71Z"/><path class="cls-5" d="M1147.27,153.78c.65,1.06,1.83,1.53,3.47,1.59s5.13,0,7-.1a6.94,6.94,0,0,0-.43,1.31c-1.71.07-4.88.1-6.59,0a4.88,4.88,0,0,1-4-1.72c-.62.61-1.28,1.22-2,1.86l-.69-1.31a19,19,0,0,0,1.92-1.52v-3.64h-1.78V149h3.1Zm-.71-6.92a10.62,10.62,0,0,0-2.29-2.48l1.06-.77a11.2,11.2,0,0,1,2.35,2.38Zm5.24-.4h-3.07V144h3.07v-.81h1.32V144h3.26v2.42h-3.26v.61h4.42V148h-9.94v-.92h4.2Zm-1.47,4.69v.68h6.17v2.7H1149v-5.91h6.89v2.53Zm1.47-5.51v-.8H1150v.8Zm-1.47,3.83v.82h4.28v-.82Zm0,3.27v.91h4.86v-.91Zm2.79-7.9v.8H1155v-.8Z"/><path class="cls-5" d="M1108.1,190.41a13.67,13.67,0,0,0,5.05,2,6.13,6.13,0,0,0-.92,1.24,13.25,13.25,0,0,1-5.33-2.8v3h-1.35V191a14.84,14.84,0,0,1-5.29,2.67,6.19,6.19,0,0,0-.9-1.17,14.44,14.44,0,0,0,5-2.07h-4.6v-1.16h5.78v-.91h-4.39v-1h4.39v-.89h-5.12v-1.1h3a7.9,7.9,0,0,0-.63-1.36l.36-.06h-3.38v-1.16h2.2a11.27,11.27,0,0,0-1.08-2l1.2-.41a10,10,0,0,1,1.19,2.13l-.75.28h1.63v-2.54h1.29v2.54H1107v-2.54h1.31v2.54h1.6l-.56-.18a12.31,12.31,0,0,0,1-2.2l1.43.36a21.83,21.83,0,0,1-1.24,2h2.15v1.16h-2.87c-.29.51-.59,1-.84,1.42h3.16v1.1h-5.27v.89h4.57v1h-4.57v.91h5.86v1.16Zm-3.82-6.52a6.12,6.12,0,0,1,.64,1.33l-.43.09h3.14a13.42,13.42,0,0,0,.65-1.42Z"/><path class="cls-5" d="M1126.75,182.88a7.14,7.14,0,0,1-1.65,2.38,10.42,10.42,0,0,0,3,1.12,5.21,5.21,0,0,0-.86,1.16,10.5,10.5,0,0,1-3.23-1.43,12.32,12.32,0,0,1-3.14,1.4,3.82,3.82,0,0,0-.38-.61,21.91,21.91,0,0,1-.82,2.39l-1-.47a17,17,0,0,0,.65-2.23h-1.14v5.71c0,.67-.11,1-.55,1.28a5.3,5.3,0,0,1-2,.22,4.8,4.8,0,0,0-.4-1.31c.59,0,1.19,0,1.37,0s.24,0,.24-.22v-4a10.45,10.45,0,0,1-2,3.23,6.68,6.68,0,0,0-.7-1.32,9.79,9.79,0,0,0,2.27-3.57h-2.06v-1.21h3.79a18.76,18.76,0,0,0-3.18-1.75l.86-.9c.42.17.89.38,1.34.6a8.41,8.41,0,0,0,1.28-1.25h-3.91V180.9h4.89l.22,0,.9.55a10.29,10.29,0,0,1-2.33,2.48,9.8,9.8,0,0,1,1.19.79l-.63.7h.92l.21-.07.83.29c0,.2-.09.39-.13.6a9.91,9.91,0,0,0,2.27-.94,8.53,8.53,0,0,1-1.32-1.56,8.93,8.93,0,0,1-.9.86,7.37,7.37,0,0,0-1.14-.78,8.9,8.9,0,0,0,2.83-3.59l1.29.36a13,13,0,0,1-.61,1.17h4.69v1.16Zm.76,5.58s0,.36,0,.55c-.25,2.66-.52,3.81-.93,4.26a1.63,1.63,0,0,1-1,.44,14.86,14.86,0,0,1-1.65,0,3.74,3.74,0,0,0-.37-1.28c.58.06,1.13.08,1.38.08a.57.57,0,0,0,.48-.17c.25-.22.46-1,.65-2.72h-2.16a5.92,5.92,0,0,1-3.89,4.24,4.29,4.29,0,0,0-.82-1.07,4.91,4.91,0,0,0,3.3-3.17h-2.08v-1.16h2.38c.07-.46.13-.92.18-1.41h1.37c0,.49-.11.95-.18,1.41Zm-5-5.58a6.81,6.81,0,0,0,1.5,1.64,5.3,5.3,0,0,0,1.25-1.64Z"/><path class="cls-5" d="M1134.71,183.76h-5.54v-1.1h5.54Zm-.49,9.28H1131v.63h-1.19v-5h4.39Zm0-7.29h-4.36v-1.07h4.36Zm-4.36.91h4.36v1.09h-4.36Zm4.33-4.88h-4.27V180.7h4.27Zm-3.16,8v2.14h2v-2.14Zm11.77-5.14v1h-8.11v-1h3.38v-.81h-2.63v-1h2.63v-.75h-3v-1h3v-.91h1.31v.91h3.13v1h-3.13v.75h2.89v1h-2.89v.81Zm-.85,7.83c0,.62-.13,1-.55,1.14a6.08,6.08,0,0,1-2,.18,4.12,4.12,0,0,0-.36-1.11c.61,0,1.22,0,1.4,0s.25-.06.25-.24v-1.37H1137v2.74h-1.27v-7.42h6.18Zm-4.91-5.06v.89h3.62v-.89Zm3.62,2.72v-.89H1137v.89Z"/><path class="cls-5" d="M1146.09,184.56a9.73,9.73,0,0,1-.9.64,5.28,5.28,0,0,0-1-1,11,11,0,0,0,4-4l1.51.3c-.14.25-.32.51-.49.76h3.22l.22-.07.94.62a10.42,10.42,0,0,1-1.27,1.77H1156v7.69h-9.86Zm3.74,7.4a19.85,19.85,0,0,1-4.47,2,9.27,9.27,0,0,0-1.09-1.08,17.32,17.32,0,0,0,4.24-1.49Zm-1.45-9.63a13.4,13.4,0,0,1-1.15,1.25h3.44a9.86,9.86,0,0,0,1-1.25Zm6.14,2.35h-7.07v1.13h7.07Zm0,2.17h-7.07V188h7.07Zm0,2.18h-7.07v1.14h7.07Zm-1.32,2.33c1.53.55,3.25,1.27,4.3,1.77l-1.52.75a28.21,28.21,0,0,0-3.9-1.76Z"/><path class="cls-5" d="M1101.26,225.89a13.8,13.8,0,0,1-1,3.8,5.14,5.14,0,0,0-1-.52,11.57,11.57,0,0,0,.88-3.49Zm2.53-3.94a11.18,11.18,0,0,1,1.35,3.08l-1,.45a4.74,4.74,0,0,0-.24-.81l-1,.06v6.12h-1.24v-6l-2.24.13-.12-1.22,1,0c.27-.36.56-.76.85-1.17a13.73,13.73,0,0,0-1.85-2.09l.67-.9a4.23,4.23,0,0,1,.4.34,17.33,17.33,0,0,0,1.22-2.7l1.22.48c-.52,1-1.14,2.14-1.68,3,.27.28.52.57.72.82.53-.88,1-1.79,1.41-2.54l1.14.52a50.51,50.51,0,0,1-2.87,4.22q.9,0,1.86-.09c-.19-.41-.4-.83-.61-1.2Zm.42,3.62a16.61,16.61,0,0,1,.93,2.69l-1.05.36a16.46,16.46,0,0,0-.88-2.73Zm8.52-7.67s0,.36,0,.54c-.1,3.11-.21,4.33-.56,4.78a1.33,1.33,0,0,1-1,.47,11.68,11.68,0,0,1-1.73,0,3,3,0,0,0-.4-1.28c.64.06,1.25.06,1.52.06s.37,0,.48-.15.31-1.07.38-3.16h-2.54c-.3,2.13-1,3.87-3.34,4.9a3.76,3.76,0,0,0-.81-1,4.39,4.39,0,0,0,2.79-3.87h-2.23V217.9Zm-6.92,6.77h6.62v6.09h-1.33v-.66h-4v.72h-1.28Zm1.28,1.22v3h4v-3Z"/><path class="cls-5" d="M1115.09,224a5.44,5.44,0,0,0-.87-1.15,14.84,14.84,0,0,0,6-5.72h1.48a14.54,14.54,0,0,0,6.33,5.52,8.44,8.44,0,0,0-.89,1.26,17.21,17.21,0,0,1-6.11-5.36A17,17,0,0,1,1115.09,224Zm4.12-1.5v1.94c0,2.1-.32,4.62-3.25,6.37a5.15,5.15,0,0,0-1.13-1,5.55,5.55,0,0,0,3-5.41v-1.92Zm5.19-.08v8.38H1123v-8.38Z"/><path class="cls-5" d="M1142.76,223.13a20.51,20.51,0,0,1-2.53,3.72l-1.16-.7a14.75,14.75,0,0,0,1.46-2.1h-3.7v5.18c0,.77-.2,1.16-.79,1.35a9.6,9.6,0,0,1-2.78.22,7.4,7.4,0,0,0-.52-1.34c1,0,2,0,2.29,0s.35-.07.35-.29v-5.15h-6v-1.33h7.28c-1.21-.56-2.68-1.22-3.84-1.68l.71-1c.75.3,1.64.64,2.52,1a15.45,15.45,0,0,0,2.41-1.75h-7.68V218h9l.3-.08,1,.78a23.27,23.27,0,0,1-3.67,2.91c.56.26,1.07.48,1.45.67l-.28.46h2.74l.25-.09Z"/><path class="cls-5" d="M1151.59,229.14a15.37,15.37,0,0,0,2.1.13c.64,0,3.14,0,4,0a4.3,4.3,0,0,0-.52,1.4h-3.54c-2.91,0-5.06-.49-6.41-2.83a7.58,7.58,0,0,1-2.1,3.1A6.84,6.84,0,0,0,1144,230c1.63-1.23,2.39-3.31,2.71-5.91l1.42.13a17.88,17.88,0,0,1-.35,1.95,4.27,4.27,0,0,0,2.42,2.62V223h-3.44v-1.33h8.38V223h-3.51v2.18h4.25v1.3h-4.25ZM1146,222.2h-1.35v-3.42h5.44v-1.59h1.47v1.59h5.51v3.42h-1.41v-2.11H1146Z"/><path class="cls-5" d="M1161.49,223.78a11.13,11.13,0,0,0-2.59-1.52l.76-1a11.35,11.35,0,0,1,2.63,1.4Zm1.28,2.08c-.69,1.58-1.57,3.38-2.34,4.78l-1.23-.82a48,48,0,0,0,2.5-4.79Zm-.54-6a10.42,10.42,0,0,0-2.57-1.62l.76-1a10.22,10.22,0,0,1,2.61,1.49Zm10.46,4.16c-.8.63-1.68,1.33-2.39,1.8a6.81,6.81,0,0,0,2.41,3.81,5.39,5.39,0,0,0-1,1.19c-2-1.57-2.82-4.51-3.27-8.12-.3.07-.58.15-.88.21v7.85h-1.31v-7.58l-.74.13a4.68,4.68,0,0,0-.37-1v.27c0,2.35-.24,5.83-2,8.27a3.58,3.58,0,0,0-1.07-.88c1.56-2.2,1.72-5.19,1.72-7.41v-4l1.19.35a29.89,29.89,0,0,0,5.72-1.79l1.17,1.09a38,38,0,0,1-6.75,1.9v2.1a27,27,0,0,0,6-1.76l1.09,1.07a21,21,0,0,1-2.65.9,19.86,19.86,0,0,0,.39,2.29,16.83,16.83,0,0,0,1.75-1.71Z"/><path class="cls-5" d="M1177,227.72c.64,1.06,1.83,1.54,3.47,1.6s5.13,0,7-.11a6.29,6.29,0,0,0-.43,1.31c-1.71.07-4.88.1-6.59,0a4.88,4.88,0,0,1-4-1.72c-.63.61-1.28,1.22-2,1.86l-.68-1.31a21.53,21.53,0,0,0,1.92-1.52v-3.64h-1.79V223H1177Zm-.71-6.91a10.71,10.71,0,0,0-2.3-2.49l1.06-.77a11.2,11.2,0,0,1,2.35,2.38Zm5.23-.41h-3.06V218h3.06v-.81h1.33V218h3.25v2.42h-3.25V221h4.41v.93h-9.93V221h4.19Zm-1.47,4.69v.68h6.17v2.7h-7.47v-5.91h6.89v2.53Zm1.47-5.5v-.81h-1.8v.81Zm-1.47,3.82v.82h4.28v-.82Zm0,3.27v.91H1185v-.91Zm2.8-7.9v.81h1.91v-.81Z"/><path class="cls-5" d="M1106.84,254.55c0,.2,0,.46,0,.73.13,2,.9,8.65,6.47,11.21a4.54,4.54,0,0,0-1.06,1.16c-3.6-1.74-5.25-5.14-6-8a12.32,12.32,0,0,1-5.72,8,4.83,4.83,0,0,0-1.15-1.09c6-3.17,5.86-10.07,6-12Z"/><path class="cls-5" d="M1119.85,262.71c-.32-.52-.94-1.39-1.5-2.12v7.21H1117v-6.53a13.68,13.68,0,0,1-2.12,3.94,7.47,7.47,0,0,0-.73-1.33,15,15,0,0,0,2.67-5.3h-2.2v-1.33H1117v-3.11h1.4v3.11h1.94v1.33h-1.94V259c.58.57,2,2.16,2.34,2.56Zm8.08-4.13h-1.48V266c0,.87-.21,1.26-.74,1.48a7.61,7.61,0,0,1-2.69.27,6.81,6.81,0,0,0-.5-1.41c.9,0,1.83,0,2.1,0s.37-.08.37-.35v-5.51a17.64,17.64,0,0,1-4.23,5,5.9,5.9,0,0,0-1-1.12,15.74,15.74,0,0,0,4.8-5.83h-3.78v-1.33H1125v-3.09h1.46v3.09h1.48Z"/><path class="cls-5" d="M1131,262.86a13.82,13.82,0,0,1-1,3.8,5.49,5.49,0,0,0-1.06-.52,11.28,11.28,0,0,0,.88-3.49Zm2.53-3.94a11.54,11.54,0,0,1,1.36,3.08l-1,.45a7.67,7.67,0,0,0-.24-.81l-1,.06v6.12h-1.23v-6l-2.25.13-.12-1.22,1,0c.27-.36.57-.76.85-1.17a14.21,14.21,0,0,0-1.84-2.09l.66-.9c.14.1.27.22.41.34a17.33,17.33,0,0,0,1.22-2.7l1.22.48c-.52,1-1.15,2.14-1.69,3a9.83,9.83,0,0,1,.72.82c.53-.88,1-1.79,1.41-2.54l1.15.52c-.84,1.35-1.91,3-2.87,4.22.59,0,1.22,0,1.86-.09-.2-.41-.41-.83-.61-1.2Zm.42,3.62a17.74,17.74,0,0,1,.94,2.69l-1.06.36a15.57,15.57,0,0,0-.88-2.73Zm8.53-7.67,0,.54c-.11,3.11-.21,4.33-.57,4.78a1.33,1.33,0,0,1-1,.47,11.54,11.54,0,0,1-1.72,0,3.09,3.09,0,0,0-.4-1.28c.64.06,1.24.06,1.51.06s.38,0,.48-.15.31-1.07.39-3.16h-2.55c-.3,2.13-1,3.87-3.33,4.9a3.8,3.8,0,0,0-.82-1,4.4,4.4,0,0,0,2.8-3.87H1135v-1.28Zm-6.92,6.77h6.62v6.09h-1.34v-.66h-4v.72h-1.28Zm1.28,1.22v3h4v-3Z"/><path class="cls-5" d="M1144.85,261a5.39,5.39,0,0,0-.86-1.15,14.9,14.9,0,0,0,6-5.72h1.47a14.47,14.47,0,0,0,6.34,5.51,8.38,8.38,0,0,0-.9,1.27,17.3,17.3,0,0,1-6.11-5.36A17,17,0,0,1,1144.85,261Zm4.12-1.5v1.94c0,2.1-.31,4.62-3.24,6.37a5.35,5.35,0,0,0-1.13-1,5.57,5.57,0,0,0,3-5.41v-1.92Zm5.19-.08v8.38h-1.44v-8.38Z"/><path class="cls-5" d="M1112.93,292.32v1.1h-3a7.49,7.49,0,0,1,.74,1.22l-1.2.48a8.37,8.37,0,0,0-1-1.7h-.85a8.34,8.34,0,0,1-1.44,1.68,6.6,6.6,0,0,0-1.13-.77,6.18,6.18,0,0,0,.94-.91h-2.46a5.86,5.86,0,0,1,.52,1.21l-1.19.49a8.29,8.29,0,0,0-.7-1.7h-.4a10.15,10.15,0,0,1-1.37,1.77c-.27-.19-.81-.56-1.13-.74a9.19,9.19,0,0,0,2.25-3.42l1.31.34-.43.95H1106v1.07a7.79,7.79,0,0,0,1.38-2.36l1.32.32a10.63,10.63,0,0,1-.44,1Zm-.47,7.51s0,.36,0,.54c-.17,2-.37,2.93-.74,3.32a1.43,1.43,0,0,1-1,.43,16.1,16.1,0,0,1-1.86,0,3.06,3.06,0,0,0-.38-1.27,11.94,11.94,0,0,0,1.6.08.79.79,0,0,0,.52-.12c.2-.19.33-.7.45-1.8h-4.09v3.75h-1.35v-3.22a14.35,14.35,0,0,1-5.12,3,5.8,5.8,0,0,0-.9-1.08,14.1,14.1,0,0,0,4.89-2.47H1102l-.14.45-1.37-.2c.31-1,.7-2.51.94-3.72h4.11v-1.23h-4.77v-1.16h10.84v3.55h-4.72v1.13Zm-9.89-1.13-.27,1.13h3.25V298.7Zm4.33-1.16h3.35v-1.23h-3.35Z"/><path class="cls-5" d="M1127.93,297v1.51h-13.54V297Z"/><path class="cls-5" d="M1131,299.83a13.82,13.82,0,0,1-1,3.8,5.49,5.49,0,0,0-1.06-.52,11.21,11.21,0,0,0,.88-3.48Zm1.67-1.17v6.13h-1.23v-6l-2.25.13-.12-1.22,1,0c.27-.35.57-.75.85-1.16a14.21,14.21,0,0,0-1.84-2.09l.66-.9c.14.1.27.22.41.34a17.67,17.67,0,0,0,1.22-2.69l1.22.47c-.52,1-1.15,2.14-1.69,3,.27.29.53.57.72.82.53-.88,1-1.78,1.41-2.54l1.15.52c-.84,1.35-1.91,3-2.87,4.22l2-.09c-.19-.41-.4-.83-.61-1.2l.94-.39a11.54,11.54,0,0,1,1.36,3.08l-1,.45c-.06-.24-.13-.52-.24-.84Zm10-2.68a14.16,14.16,0,0,1-2.46,5.85,7.37,7.37,0,0,0,2.81,1.83,4.62,4.62,0,0,0-.86,1.13,8.12,8.12,0,0,1-2.79-2,9.3,9.3,0,0,1-2.55,1.92,4.3,4.3,0,0,0-.94-1,9,9,0,0,0,2.67-1.93,13.42,13.42,0,0,1-1.7-3.66,12.07,12.07,0,0,1-2.45,6.59,5.5,5.5,0,0,0-1-.75,8,8,0,0,0,1.17-1.81l-.69.24a13.67,13.67,0,0,0-.85-2.59l1-.33a14.62,14.62,0,0,1,.79,2.11,16.8,16.8,0,0,0,.94-6.13v-2.18h-1.34V292h5.14l.23-.06.93.13c-.16,1.06-.41,2.37-.67,3.63h1.57l.24,0Zm-5.7-1.93a16.28,16.28,0,0,0,2.41,6.75,11.48,11.48,0,0,0,1.76-3.85h-1.36l-.13.64-1.24-.14c.29-1.26.6-2.91.81-4.16H1137Z"/><path class="cls-5" d="M1152.24,296.17a3.26,3.26,0,0,1-2.61,3.26,3.93,3.93,0,0,0-.63-.91,3.74,3.74,0,0,1,.06.72,2,2,0,0,1-.64,1.78,2.05,2.05,0,0,1-.8.3,6.22,6.22,0,0,1-1,0,3.32,3.32,0,0,0-.33-1.25,2.76,2.76,0,0,0,.74,0,.86.86,0,0,0,.48-.13,1.29,1.29,0,0,0,.25-.94,4,4,0,0,0-1.19-2.74c.36-1,.76-2.35,1-3.34H1146v11.79h-1.31v-13h3.4l.21-.06.94.54c-.42,1.25-.94,2.79-1.41,3.94a4.88,4.88,0,0,1,1.16,2.26,2.36,2.36,0,0,0,2-2.25h-2V295h3.51v-1.43h-2.75v-1.16h2.75v-1.26h1.37v1.26h2.86v1.16h-2.86V295h3.69v1.17h-2.51v1.3c0,.33,0,.36.34.36h.86c.25,0,.31-.12.34-1.14a3.34,3.34,0,0,0,1.09.45c-.12,1.43-.46,1.77-1.28,1.77h-1.21c-1.11,0-1.35-.34-1.35-1.43v-1.31Zm5.48,7v1.25h-9.34V303.2h4.13v-1.76h-2.94v-1.2h2.94v-1.42h1.37v1.42h3v1.2h-3v1.76Z"/><path class="cls-5" d="M1172.44,302.66v1.4h-13.32v-1.4h5.43V291.32H1166v4.42h5.37v1.39H1166v5.53Z"/><path class="cls-5" d="M1185.73,296.74v1.59h1.62v1.28h-1.62v3.54c0,.75-.17,1.15-.67,1.39a8.17,8.17,0,0,1-2.46.22,5.84,5.84,0,0,0-.43-1.39c.84,0,1.64,0,1.88,0s.31-.06.31-.27v-3.51h-5.18v-.79l-1.43.45v5.49h-1.28v-5.09l-2.35.7-.35-1.33c.74-.17,1.68-.43,2.7-.72v-3h-1.2a12.67,12.67,0,0,1-.61,2,11.5,11.5,0,0,0-1-.62,17,17,0,0,0,.92-4.85l1.19.21c-.07.64-.14,1.29-.26,1.92h1v-2.9h1.28V294h1.39v1.31h-1.39V298l1.57-.46.11.83h4.93v-1.59h-5.46v-1.28h3.66v-1.62h-2.78v-1.25h2.78V291.1h1.37v1.49h2.87v1.25h-2.87v1.62h3.54v1.28Zm-4.84,3.11a10.67,10.67,0,0,1,1.83,2.29l-1.1.71a10.59,10.59,0,0,0-1.77-2.36Z"/><path class="cls-5" d="M1199.54,298.64a10.35,10.35,0,0,0,3.09,3.81,5,5,0,0,0-1,1.09,11.93,11.93,0,0,1-2.8-3.9v5.19h-1.31v-4.94a11.8,11.8,0,0,1-3.55,3.87,5.68,5.68,0,0,0-.94-1.07,10.89,10.89,0,0,0,3.88-4.05h-2.79v-1.26h3.4v-2.32h-1.65a7.9,7.9,0,0,1-1,1.93,7.71,7.71,0,0,0-.94-.59c-.67,4-2.14,6.84-4.12,8.34a4.6,4.6,0,0,0-1-.95,8.72,8.72,0,0,0,2.84-3.78,11,11,0,0,0-1.65-1.38,8.16,8.16,0,0,1-.64,1,7.07,7.07,0,0,0-1-.9,13.54,13.54,0,0,0,2.15-5.67h-1.71v-1.25h5.71v1.25H1192c-.12.58-.24,1.16-.39,1.73h1.62l.23,0,.8.25c0,.33-.07.65-.13,1a10.73,10.73,0,0,0,1.35-4.08l1.27.21c-.11.58-.23,1.14-.38,1.68h1.25v-2.59h1.31v2.59h2.81v1.28h-2.81v2.32h3.34v1.26Zm-8.33-2.6c-.17.52-.36,1-.55,1.47a15.69,15.69,0,0,1,1.57,1.18,17.82,17.82,0,0,0,.6-2.65Z"/><path class="cls-5" d="M1205.85,294.67a12.35,12.35,0,0,1-1.13,1.07,8.35,8.35,0,0,0-1.15-.9,10.1,10.1,0,0,0,3.13-3.72l1.35.38a10.3,10.3,0,0,1-.71,1.25h9.15V294H1215v2.23h2v1.25h-2v2.23h1.8v1.25h-12.78v-1.25h1.8v-2.23h-2V296.2h2Zm-2.16,9.57a6.66,6.66,0,0,0,1.76-2.81l1.34.32a7.77,7.77,0,0,1-1.79,3Zm3.41-8h1.38V294h-1.38Zm0,3.48h1.38v-2.23h-1.38Zm2.23,2a16.45,16.45,0,0,1,.37,2.71l-1.35.19a16.2,16.2,0,0,0-.3-2.76Zm1.76-5.52V294h-1.45v2.23Zm-1.45,1.25v2.23h1.45v-2.23Zm2.68,4.21a13.49,13.49,0,0,1,.91,2.71l-1.37.27a14.6,14.6,0,0,0-.83-2.77Zm1.42-7.69h-1.48v2.23h1.48Zm0,3.48h-1.48v2.23h1.48Zm1.56,3.92a18.69,18.69,0,0,1,2,2.93l-1.4.49a18.43,18.43,0,0,0-1.87-3Z"/><path class="cls-5" d="M1220.24,299.82a13.17,13.17,0,0,1-1,3.78,6.3,6.3,0,0,0-1-.49,11.69,11.69,0,0,0,.84-3.48Zm1.65-1.24v6.18h-1.22v-6.09c-.8.05-1.54.11-2.2.14l-.13-1.21,1-.06c.25-.33.53-.7.8-1.08a13.61,13.61,0,0,0-1.77-2.1l.7-.92c.14.12.27.25.4.38a18.13,18.13,0,0,0,1.21-2.7l1.22.44c-.52,1-1.16,2.2-1.7,3a8.73,8.73,0,0,1,.66.81,27.61,27.61,0,0,0,1.47-2.56l1.14.52c-.83,1.32-1.9,2.9-2.87,4.13l1.76-.1a9.8,9.8,0,0,0-.57-1.12l1-.41a12,12,0,0,1,1.38,3.08l-1.06.49a8,8,0,0,0-.27-.91Zm1.34,1a11.73,11.73,0,0,1,.75,2.59l-1.06.33a10.06,10.06,0,0,0-.68-2.62Zm3.93-.21a7.08,7.08,0,0,1-3.11,4.81,4.59,4.59,0,0,0-.86-.95,5.48,5.48,0,0,0,2.5-3h-1.76v-1.15h2.28l.19,0Zm4.94-.09c-.7.61-1.49,1.27-2.17,1.76a5.88,5.88,0,0,0,2.44,2,5.22,5.22,0,0,0-.84,1.11,7.14,7.14,0,0,1-3-3.23v2.44c0,.63-.09,1-.52,1.18a5,5,0,0,1-1.93.21,5.24,5.24,0,0,0-.36-1.19h1.34c.18,0,.22-.05.22-.21v-5.42h-2.91V292.6h2.38a12.76,12.76,0,0,0,.55-1.51l1.56.26c-.22.44-.46.87-.68,1.25h3.28v5.34h-2.93v.11a9.9,9.9,0,0,0,.78,2.05,14.61,14.61,0,0,0,1.62-1.64Zm-6.44-4.52h4.53v-1.07h-4.53Zm0,2.1h4.53v-1.07h-4.53Z"/><path class="cls-5" d="M1238.37,298.78l-1.7.49v3.91c0,.72-.15,1.09-.58,1.3a5.19,5.19,0,0,1-2.11.23,5.57,5.57,0,0,0-.42-1.25c.66,0,1.28,0,1.46,0s.3-.07.3-.28v-3.52l-1.64.44-.36-1.32,2-.48v-3h-1.83V294h1.83v-2.9h1.35V294h1.56v1.28h-1.56v2.62l1.52-.4Zm8-1.82a10.85,10.85,0,0,1-2.91,4.93,10.5,10.5,0,0,0,3.66,1.72,4.88,4.88,0,0,0-.89,1.18,10.5,10.5,0,0,1-3.84-2,12.84,12.84,0,0,1-4.07,2,5.68,5.68,0,0,0-.75-1.25,11.42,11.42,0,0,0,3.83-1.7,12.07,12.07,0,0,1-2.31-3.84l.19-.06h-.59v-1.26h3.06v-2h-3.33v-1.26h3.33v-2.23h1.37v2.23h3.44v1.26h-3.44v2h2.12l.23,0Zm-5.93,1a9.53,9.53,0,0,0,2,3.07,8.71,8.71,0,0,0,2.17-3.07Z"/><path class="cls-5" d="M1255.78,297.05v5.6h5.16V304h-11.68v-1.38h5v-5.6h-5.86v-1.37h5.86v-4.53h1.48v4.53h6v1.37Z"/><path class="cls-5" d="M1263.1,293.62h5v1.1h-5Zm4.67,10.5h-2.9v.64h-1.14v-5h4Zm-.06-7.37h-4v-1.07h4Zm-4,1h4v1.07h-4Zm3.91-5h-3.83v-1.08h3.83Zm-2.78,8.19V303h1.74v-2.14Zm12,1.63h-.78v.95c0,.63-.12.94-.59,1.12a6.29,6.29,0,0,1-2.09.18,4.53,4.53,0,0,0-.33-1.09c.64,0,1.29,0,1.49,0s.23-.07.23-.25v-.94h-4.59v2.26H1269v-2.26h-.83v-1.1h.83v-3.72h2.87V297h-3.68v-1.09h2.06v-.82h-1.38v-1h1.38v-.79h-1.66v-1h1.66v-1.16h1.25v1.16h2.07v-1.16h1.25v1.16h1.76v1h-1.76v.79h1.46v1h-1.46v.82h2V297H1273v.71h3v3.72h.78Zm-6.66-3.82v.91h1.69v-.91Zm0,2.72h1.69v-.91h-1.69Zm1.32-7.33h2.07v-.79h-2.07Zm0,1.81h2.07v-.82h-2.07Zm1.55,2.8v.91h1.72v-.91Zm1.72,2.72v-.91H1273v.91Z"/><path class="cls-5" d="M1280.41,296.63c0,2.33-.19,5.79-1.43,8.07a6.09,6.09,0,0,0-1.16-.79c1.13-2.11,1.23-5.13,1.23-7.28v-4h5.49v-1.47H1286v1.47h5.5v1.28h-11.08Zm6.19,6.57h5v1.2h-11.18v-1.2h4.85v-1.88h-3.89v-1.2h3.89V294.4h1.36v4.05a5.79,5.79,0,0,0,2-3.81l1.25.14a11.16,11.16,0,0,1-.45,1.77,27.93,27.93,0,0,1,2.26,2l-.85.94a23.09,23.09,0,0,0-1.9-1.83,5.82,5.82,0,0,1-1.49,1.76,5.45,5.45,0,0,0-.77-.69v1.39h4.09v1.2h-4.09Zm-2.7-8.45a8.79,8.79,0,0,1-.41,1.83,14.85,14.85,0,0,1,1.69,1.71l-.78.92a20.27,20.27,0,0,0-1.37-1.5,5.83,5.83,0,0,1-1.49,1.86,7.23,7.23,0,0,0-1-.81,5.65,5.65,0,0,0,2.12-4.12Z"/><path class="cls-5" d="M1104.34,337.31a16.81,16.81,0,0,0-1.16-1.73v6.13h-1.34v-6a14.48,14.48,0,0,1-1.9,3.47,7.76,7.76,0,0,0-.67-1.28,15.16,15.16,0,0,0,2.39-4.36h-2.11v-1.31h2.29v-2c-.68.15-1.37.25-2,.34a4.1,4.1,0,0,0-.4-1.07,22,22,0,0,0,4.64-1.19l1,1.06c-.53.2-1.17.4-1.84.58v2.3h1.74v1.31h-1.74v.69a26,26,0,0,1,2,2Zm8.75-1.93c-1.22,3.76-4.26,5.56-7.9,6.38a4.29,4.29,0,0,0-.69-1.18,11.57,11.57,0,0,0,4.27-1.59,11.74,11.74,0,0,0-1.84-1.41,11.42,11.42,0,0,1-1.28.77,3.7,3.7,0,0,0-.86-1,9.16,9.16,0,0,0,4-3.36,13.59,13.59,0,0,1-3.28,1.43,4.34,4.34,0,0,0-.71-1.12,10.87,10.87,0,0,0,3.35-1.38,11.16,11.16,0,0,0-1.62-1.31c-.37.25-.76.49-1.19.73a4,4,0,0,0-.87-1,8.47,8.47,0,0,0,3.74-3.3l1.35.25a7.86,7.86,0,0,1-.67,1h2.37l.24-.06.87.41a8.45,8.45,0,0,1-3.19,4l1.14.2a12.05,12.05,0,0,1-.71,1.1H1112l.25-.05Zm-5.22-4.87-.45.42a12,12,0,0,1,1.7,1.29,6.69,6.69,0,0,0,1.44-1.71Zm.74,5.7-.68.62a11.88,11.88,0,0,1,1.87,1.37,6.86,6.86,0,0,0,1.5-2Z"/><path class="cls-5" d="M1127.64,331.48s0,.47,0,.64c-.17,6.14-.3,8.26-.78,8.89a1.28,1.28,0,0,1-1,.64,10.77,10.77,0,0,1-1.83,0,3.64,3.64,0,0,0-.39-1.31c.68.06,1.3.06,1.56.06a.55.55,0,0,0,.54-.24c.33-.42.48-2.3.59-7.42h-1.75c-.19,3.95-.86,7.11-3.42,9.07a4.6,4.6,0,0,0-1-1c.09-.06.18-.14.27-.21-2.14.25-4.29.47-5.88.62l-.18-1.17c.87-.06,1.94-.15,3.11-.26v-1.13h-2.71v-1h2.71v-.76h-2.66v-4.47h2.66v-.78h-3.06v-1h3.06v-.84c-.91.08-1.81.12-2.65.15a4.16,4.16,0,0,0-.32-1,45.4,45.4,0,0,0,6.38-.72l.65,1c-.79.16-1.77.31-2.79.41v1h3v.86h1.56c0-1,0-2.07,0-3.19h1.32c0,1.11,0,2.18,0,3.19Zm-11.75,2.75h1.53v-.91h-1.53Zm1.53,1.76v-.91h-1.53V336Zm1.27,3.69c.92-.09,1.87-.18,2.81-.29,1.22-1.68,1.59-3.92,1.71-6.63h-1.58v-1.12h-2.94v.78h2.76v4.47h-2.76v.76h2.79v1h-2.79Zm1.59-5.45v-.91h-1.59v.91Zm-1.59.85V336h1.59v-.91Z"/><path class="cls-5" d="M1133.45,328.53a23.63,23.63,0,0,1-1.25,3v10.17h-1.32v-7.88c-.38.53-.73,1-1.11,1.46a8,8,0,0,0-.77-1.4,16.77,16.77,0,0,0,3.16-5.73Zm5.79,3.71a14.89,14.89,0,0,0,3.84,6.08,5.27,5.27,0,0,0-1.06,1.1,17.25,17.25,0,0,1-3.56-6.13v4.57h2.21v1.25h-2.21v2.54h-1.35v-2.54h-2.22v-1.25h2.22v-4.48a16.83,16.83,0,0,1-3.66,6.09,5.51,5.51,0,0,0-1-1.06,15.15,15.15,0,0,0,3.91-6.17h-3.26v-1.31h4v-2.77h1.35v2.77h4.26v1.31Z"/><path class="cls-5" d="M1147.45,338.62c.64,1,1.82,1.49,3.46,1.56s5.1,0,7-.1a6.48,6.48,0,0,0-.45,1.35c-1.71.08-4.83.11-6.56.05a5,5,0,0,1-4-1.72c-.72.62-1.46,1.23-2.29,1.85l-.66-1.37a21.91,21.91,0,0,0,2.22-1.55v-3.55h-2v-1.28h3.36Zm-.65-6.89a11.38,11.38,0,0,0-2.49-2.45l1-.87a12.11,12.11,0,0,1,2.55,2.32Zm3.36,7.66h-1.29v-7.61h3.82c-.8-.39-1.7-.78-2.45-1.07l.89-.75c.58.21,1.26.48,1.92.76a11.65,11.65,0,0,0,1.63-1h-5.75v-1.08h7l.29-.08.83.67a14.16,14.16,0,0,1-2.84,2c.38.18.73.36,1,.53h1.83v6.33c0,.63-.11.94-.54,1.13a5.55,5.55,0,0,1-2,.2,3.78,3.78,0,0,0-.37-1.12c.62,0,1.19,0,1.37,0s.22-.06.22-.24v-1h-2.22v2.29h-1.25v-2.29h-2.14Zm0-6.59v1.09h2.14V332.8Zm2.14,3.22V334.9h-2.14V336Zm3.47-3.22h-2.22v1.09h2.22Zm0,3.22V334.9h-2.22V336Z"/><path class="cls-5" d="M1163.64,328.53a23.14,23.14,0,0,1-1.45,3V341.7h-1.31v-8.21a17.27,17.27,0,0,1-1.46,1.72,14.09,14.09,0,0,0-.76-1.4,15.89,15.89,0,0,0,3.69-5.69Zm9,2.26v1.15h-9.53v-1.15Zm-8.52,6.24h7.6v4.65h-1.38v-.59h-4.9v.64h-1.32Zm7.43-3h-7.26v-1.11h7.26Zm-7.26,1h7.22v1.1h-7.22Zm7-5.12h-6.79v-1.11h6.79Zm-5.85,8.27V340h4.9v-1.86Z"/><path class="cls-5" d="M1176.35,330.51h8.14a9.41,9.41,0,0,0,1.34-.09v1.64a11.8,11.8,0,0,0-1.34-.06h-3.38v6.5h4.2a11.69,11.69,0,0,0,1.29-.1v1.71a10.23,10.23,0,0,0-1.29-.08h-9.82a11.07,11.07,0,0,0-1.38.08V338.4a9.25,9.25,0,0,0,1.38.1h4V332h-3.14a12.43,12.43,0,0,0-1.32.06v-1.64A10.34,10.34,0,0,0,1176.35,330.51Z"/><path class="cls-5" d="M1194.45,337.35a14.13,14.13,0,0,0,5.16-5.6l.91,1.62a15.16,15.16,0,0,1-5.22,5.38,16.28,16.28,0,0,1-5.7,2.22l-1-1.53A15.38,15.38,0,0,0,1194.45,337.35Zm-.51-4.76-1.17,1.21a31.51,31.51,0,0,0-3.72-3.15l1.09-1.17A31.34,31.34,0,0,1,1193.94,332.59Z"/><path class="cls-5" d="M1206.15,334.48l-.87,1.33a35.92,35.92,0,0,0-3.3-2.09l.83-1.27C1203.75,333,1205.45,334,1206.15,334.48Zm1.5,3.5a15.23,15.23,0,0,0,5.7-5.52l.91,1.58a18,18,0,0,1-5.82,5.34,17.85,17.85,0,0,1-4.94,1.83l-.88-1.53A16.62,16.62,0,0,0,1207.65,338Zm.74-6.78-.89,1.27c-.76-.55-2.35-1.59-3.26-2.11l.85-1.29C1206,329.59,1207.68,330.69,1208.39,331.2Zm4.47.44-1,.45a13.69,13.69,0,0,0-1.34-2.34l1-.43A23.26,23.26,0,0,1,1212.86,331.64Zm2-.77-1.05.46a13.94,13.94,0,0,0-1.39-2.29l1-.43A21.92,21.92,0,0,1,1214.9,330.87Z"/><path class="cls-5" d="M1217.88,338.11h8.74a12.29,12.29,0,0,0,1.49-.09v1.8c-.49,0-1.07-.07-1.49-.07h-8.74c-.55,0-1.16,0-1.7.07V338C1216.73,338.07,1217.33,338.11,1217.88,338.11Zm1.16-7.33h6.27c.57,0,1.15,0,1.55-.07v1.69c-.42,0-1,0-1.55,0h-6.26c-.54,0-1.12,0-1.59,0v-1.69C1218,330.75,1218.54,330.78,1219,330.78Z"/><path class="cls-5" d="M1242,331.14a14.86,14.86,0,0,1-3.65,4.1l-1.23-1a9.15,9.15,0,0,0,3-3.08H1232c-.6,0-1.12,0-1.76.08V329.6a12.42,12.42,0,0,0,1.76.14h8.31a7.62,7.62,0,0,0,1.24-.11l.94.88A5.91,5.91,0,0,0,1242,331.14Zm-9.66,10.1-1.37-1.12a5.54,5.54,0,0,0,1.43-.73c2.13-1.37,2.47-3.24,2.47-5.71a7,7,0,0,0-.09-1.19h1.7C1236.48,336.37,1236.25,339.23,1232.34,341.24Z"/><path class="cls-5" d="M1256.36,340c0,.81-.2,1.24-.75,1.48a10,10,0,0,1-2.84.23,5.7,5.7,0,0,0-.47-1.41c1,.05,2,.05,2.29,0s.38-.09.38-.34V332h-9.28v9.78h-1.37V330.6h4.06a18.65,18.65,0,0,0,.87-2.54l1.75.28c-.33.76-.71,1.58-1.08,2.26h6.44Zm-7.68-1.4v1.05h-1.26v-6h5.77v4.95Zm0-3.73v2.5h3.23v-2.5Z"/><path class="cls-5" d="M1261.35,330.17c-.42,1.95-.94,5.15-.45,7.32.19-.55.51-1.38.76-2l.77.49c-.4,1.13-.82,2.65-1,3.42a5,5,0,0,0-.07.7c0,.15,0,.37.05.55l-1.3.15a16.5,16.5,0,0,1-.82-4.76,40.5,40.5,0,0,1,.54-5.95,7.4,7.4,0,0,0,.07-1.12l1.74.17C1261.54,329.41,1261.42,329.89,1261.35,330.17Zm7.7-.36c0,.33,0,1.21,0,2.1a22.15,22.15,0,0,0,2.35-.31l0,1.52c-.64.08-1.46.17-2.32.22v.58c0,3.45-.12,5.76-3.18,7.63l-1.37-1.07a5,5,0,0,0,1.58-1c1.38-1.3,1.54-2.83,1.54-5.54v-.49l-1.8,0c-.68,0-1.66,0-2.35-.07v-1.5a16.87,16.87,0,0,0,2.34.16l1.78,0c0-.91,0-1.8-.07-2.19s-.11-.71-.15-.93h1.73A7.88,7.88,0,0,0,1269.05,329.81Z"/><path class="cls-5" d="M1273,328.84h5.27v1.25h-2.23a25.39,25.39,0,0,1-.86,3.28h2.87v6.54h-2.92v1.15H1274v-5a8.84,8.84,0,0,1-.7,1,6.62,6.62,0,0,0-.55-1.56,13.5,13.5,0,0,0,2-5.41H1273Zm3.86,5.76h-1.73v4.09h1.73Zm9.64.85h-1.61v6.29h-1.32v-6.29h-2.12c-.07,2.23-.46,4.7-2.06,6.37a7.23,7.23,0,0,0-1.06-.81c1.41-1.47,1.76-3.66,1.83-5.56h-1.53v-1.31h1.54v-4h-1.14v-1.29h7.17v1.29h-1.31v4h1.61Zm-2.93-1.31v-4h-2.1v4Z"/><path class="cls-5" d="M1291.79,328.52a30.54,30.54,0,0,1-1.14,2.9v10.31h-1.31v-7.89a15.72,15.72,0,0,1-1.19,1.66,10.24,10.24,0,0,0-.7-1.46,17.39,17.39,0,0,0,3.06-5.88Zm8.31,2.24a8.37,8.37,0,0,1-1.85,2.38,11.12,11.12,0,0,0,3.48,1.16,6.85,6.85,0,0,0-.76,1.14,11.57,11.57,0,0,1-3.72-1.54,12.77,12.77,0,0,1-3.58,1.65,7.72,7.72,0,0,0-.73-1v4.72h-1.21v-9.4h1.21v2a9.71,9.71,0,0,0,2.54-3.8l1.27.31a12.09,12.09,0,0,1-.58,1.27h5.09v1.11Zm-7.16,3.69a11.49,11.49,0,0,0,3.29-1.31,8.4,8.4,0,0,1-1.37-1.45,11.35,11.35,0,0,1-1.1,1.17c-.18-.16-.54-.44-.82-.65Zm8.38,3.89c-1.49,1.75-4.2,2.78-7.28,3.33a5,5,0,0,0-.71-1.09c2.87-.41,5.5-1.28,6.8-2.73Zm-2.82-3.1a9.74,9.74,0,0,1-3.79,2.11,5.15,5.15,0,0,0-.76-.8,9.1,9.1,0,0,0,3.51-1.74Zm1.4,1.37a10.71,10.71,0,0,1-5.1,2.69,5.61,5.61,0,0,0-.69-.89,10.19,10.19,0,0,0,4.77-2.22Zm-4.37-5.85,0,0a7.2,7.2,0,0,0,1.67,1.69,6.51,6.51,0,0,0,1.47-1.71Z"/><line class="cls-7" x1="1098.81" y1="121.54" x2="1311.63" y2="121.54"/><path class="cls-5" d="M1367.76,100c-.35-.44-1-1.15-1.62-1.76v5.92h-1.37V98.66a13.07,13.07,0,0,1-2.09,1.67,6.22,6.22,0,0,0-.68-1.28,12.31,12.31,0,0,0,4.42-4.55h-3.9V93.23h2.25V90.5h1.37v2.73h1l.24,0,.77.52a13.83,13.83,0,0,1-1.84,3.2c.7.56,1.93,1.63,2.27,2Zm8.3,2.38v1.37h-8.33v-1.37h3.6V96.53h-3V95.2h3V90.61h1.41V95.2h3v1.33h-3v5.84Z"/><path class="cls-5" d="M1386.43,101.64a44.25,44.25,0,0,1,4.44,1.56l-1.23,1a37.49,37.49,0,0,0-4.68-1.71l1.1-.82h-4.34l1.07.71a18.52,18.52,0,0,1-4.61,1.8,8.32,8.32,0,0,0-1-1,17.75,17.75,0,0,0,4.17-1.52h-2.6V95.21h10.62v6.43Zm2.31-7.14h-9.4V91h9.4Zm-8.68,2.56h7.82v-.85h-7.82Zm0,1.8h7.82V98h-7.82Zm0,1.8h7.82v-.88h-7.82Zm7.22-8.54h-6.56V93.4h6.56Z"/><path class="cls-5" d="M1399.2,103.54l-.88-1.4a8.45,8.45,0,0,0,1.33-.21,4.27,4.27,0,0,0,3.6-4.22,4,4,0,0,0-3.6-4.15,28.75,28.75,0,0,1-.9,4.18c-.89,3-2.12,4.72-3.6,4.72s-2.82-1.64-2.82-4.12a6.44,6.44,0,0,1,6.65-6.19,5.5,5.5,0,0,1,5.83,5.6C1404.81,100.88,1402.82,103,1399.2,103.54Zm-4-2.85c.67,0,1.37-1,2-3.26a24.17,24.17,0,0,0,.82-3.84,5,5,0,0,0-4.24,4.6C1393.83,99.9,1394.56,100.69,1395.2,100.69Z"/><path class="cls-5" d="M1418.65,101.31h-1.38v-.76h-8.11a6.74,6.74,0,0,1-1.88,3.66,5.41,5.41,0,0,0-1.08-.94,6.69,6.69,0,0,0,1.83-5.11V96.28h10.62Zm-4.79-8.45v1.22h5.06v1.17h-11.19V94.08h4.75V92.86h-5.66V91.68h5.66v-1.2h1.38v1.2h5.71v1.18Zm-4.48,4.55v.76a10.31,10.31,0,0,1-.06,1.21h3.19v-2Zm7.89,0h-3.42v2h3.42Z"/><line class="cls-7" x1="1361.66" y1="121.54" x2="1559.65" y2="121.54"/><path class="cls-5" d="M1366.85,174.09l-1.53.5v4.15c0,.68-.14,1-.54,1.27a4.37,4.37,0,0,1-1.93.26,4.41,4.41,0,0,0-.38-1.28h1.31c.2,0,.27-.05.27-.25V175c-.58.18-1.13.34-1.62.51l-.31-1.34,1.93-.54v-2.82h-1.72V169.5h1.72v-2.87h1.27v2.87h1.48v1.28h-1.48v2.45l1.35-.4Zm5.93,1a9.74,9.74,0,0,0,3.38,3.26,6,6,0,0,0-.91,1,11,11,0,0,1-3.21-3.35v4.1h-1.31V176a10.43,10.43,0,0,1-3.58,3.43,5.88,5.88,0,0,0-.94-1.05,9.39,9.39,0,0,0,3.73-3.29h-2.84v-1.2h3.63v-1.6H1372v1.6h3.71v1.2Zm2.59-7.26a41.24,41.24,0,0,1-8,1.12,4.25,4.25,0,0,0-.36-1.13,40.56,40.56,0,0,0,7.47-1.06Zm-7.2,4.69a10.51,10.51,0,0,0-1-2.81l1.1-.32a10.41,10.41,0,0,1,1.07,2.75Zm2.59-.52a10.42,10.42,0,0,0-.64-2.76l1.16-.2a9.84,9.84,0,0,1,.72,2.69Zm1.94.43a23.52,23.52,0,0,0,1.81-3.62l1.29.48a28.37,28.37,0,0,1-2,3.58Z"/><path class="cls-5" d="M1389.76,178.53c0,.8-.19,1.22-.72,1.43a8.23,8.23,0,0,1-2.79.23,5.75,5.75,0,0,0-.46-1.34c1,.05,1.94,0,2.22,0s.37-.08.37-.37v-2.66h-3.6v4.25h-1.38v-4.25H1380a8.52,8.52,0,0,1-1.85,4.51,4.55,4.55,0,0,0-1.09-.91c1.62-1.8,1.77-4.43,1.77-6.53v-5.3h11Zm-6.36-4v-2.2h-3.23v.59c0,.51,0,1.06-.06,1.61Zm-3.23-5.59V171h3.23V169Zm8.21,0h-3.6V171h3.6Zm0,5.59v-2.2h-3.6v2.2Z"/><path class="cls-5" d="M1365.08,220.89h7.39c.4,0,.92,0,1.19,0,0,.33,0,.87,0,1.25v7.69c0,.53,0,1.25.06,1.58H1372c0-.21,0-.49,0-.8h-7c-.61,0-1.35,0-1.79.06V229c.44,0,1.09.07,1.73.07H1372V222.4h-7c-.58,0-1.34,0-1.73.06V220.8C1363.87,220.85,1364.59,220.89,1365.08,220.89Z"/><path class="cls-5" d="M1382.74,227.94a14.06,14.06,0,0,0,5.16-5.6l.91,1.62a15.16,15.16,0,0,1-5.22,5.38,16.28,16.28,0,0,1-5.7,2.22l-1-1.53A15.38,15.38,0,0,0,1382.74,227.94Zm-.5-4.76-1.18,1.21a31.51,31.51,0,0,0-3.72-3.15l1.09-1.17A32.24,32.24,0,0,1,1382.24,223.18Z"/><path class="cls-5" d="M1395.21,232l-1.26-1.19c2.78-1,4.09-2.3,4.09-6.25v-.59h-3.93v2.23a12.74,12.74,0,0,0,.08,1.44h-1.65c0-.21.07-.82.07-1.44v-2.23h-1.46c-.7,0-1.31,0-1.55.06v-1.62a10.33,10.33,0,0,0,1.55.11h1.46v-1.71a8.15,8.15,0,0,0-.09-1.19h1.68a8,8,0,0,0-.09,1.19v1.71H1398v-1.72a10.55,10.55,0,0,0-.07-1.3h1.68a9.76,9.76,0,0,0-.09,1.3v1.72h1.4a11,11,0,0,0,1.48-.08V224c-.23,0-.76,0-1.47,0h-1.41v.5C1399.56,228.27,1398.69,230.4,1395.21,232Z"/><path class="cls-5" d="M1405.71,227.08a25.81,25.81,0,0,0,.43-5.93,4.61,4.61,0,0,0-.12-1.21h1.72c0,.12-.07.67-.07,1.19a32.63,32.63,0,0,1-.46,6.35,8.34,8.34,0,0,1-2.65,4.17l-1.43-1A7,7,0,0,0,1405.71,227.08Zm4.39,2.81v-8.8a10.83,10.83,0,0,0-.09-1.19h1.72a10.46,10.46,0,0,0-.07,1.19v8.22a10.44,10.44,0,0,0,4-3.42l.91,1.28a15.72,15.72,0,0,1-5.07,4.11,4.77,4.77,0,0,0-.57.37l-1-.82A4.18,4.18,0,0,0,1410.1,229.89Z"/><path class="cls-5" d="M1423.7,220.76l-.17.3h3.59a3.24,3.24,0,0,0,1.11-.17l1.21.75a7.07,7.07,0,0,0-.4.92,17.13,17.13,0,0,1-2.28,4.49c.63.45,1.21.89,1.67,1.27l-1.1,1.31c-.42-.39-1-.85-1.59-1.34a14.26,14.26,0,0,1-5.52,3.67l-1.36-1.19a12.64,12.64,0,0,0,5.63-3.42c-1-.74-2.1-1.47-3-2l1-1.06c.89.52,1.94,1.19,2.93,1.87a12.06,12.06,0,0,0,1.86-3.74h-4.7a16.89,16.89,0,0,1-3.93,3.89l-1.26-1a13.65,13.65,0,0,0,4.76-5.07,6.35,6.35,0,0,0,.56-1.34l1.7.53C1424.17,219.88,1423.86,220.46,1423.7,220.76Z"/><path class="cls-5" d="M1436.93,227.94a14.21,14.21,0,0,0,5.16-5.6L1443,224a15.16,15.16,0,0,1-5.22,5.38,16.44,16.44,0,0,1-5.7,2.22l-1-1.53A15.38,15.38,0,0,0,1436.93,227.94Zm-.51-4.76-1.17,1.21a32.35,32.35,0,0,0-3.72-3.15l1.08-1.17A31.45,31.45,0,0,1,1436.42,223.18Z"/><path class="cls-5" d="M1445.84,221.19a10.71,10.71,0,0,0-.13-1.67h1.83c0,.49-.11,1.15-.11,1.67v2.32a51.23,51.23,0,0,1,6.3,2.38l-.67,1.62a40.21,40.21,0,0,0-5.63-2.32v4.6a18.46,18.46,0,0,0,.12,1.9h-1.83a14.46,14.46,0,0,0,.12-1.9Z"/><path class="cls-5" d="M1364.8,248.07h8.13a9.41,9.41,0,0,0,1.34-.09v1.64a11.8,11.8,0,0,0-1.34-.06h-3.37v6.5h4.19a12.09,12.09,0,0,0,1.3-.1v1.71a10.49,10.49,0,0,0-1.3-.08h-9.82a11.07,11.07,0,0,0-1.38.08V256a9.34,9.34,0,0,0,1.38.1h4v-6.5h-3.13a12.5,12.5,0,0,0-1.33.06V248A10.37,10.37,0,0,0,1364.8,248.07Z"/><path class="cls-5" d="M1382.89,254.92a14.14,14.14,0,0,0,5.16-5.61l.91,1.62a15.16,15.16,0,0,1-5.22,5.38,16.28,16.28,0,0,1-5.7,2.22l-1-1.53A15.55,15.55,0,0,0,1382.89,254.92Zm-.5-4.77-1.18,1.21a31.51,31.51,0,0,0-3.72-3.15l1.09-1.17A32.24,32.24,0,0,1,1382.39,250.15Z"/><path class="cls-5" d="M1394.59,252l-.87,1.33a33.86,33.86,0,0,0-3.3-2.08l.84-1.28C1392.19,250.51,1393.89,251.55,1394.59,252Zm1.5,3.5a15.15,15.15,0,0,0,5.7-5.52l.91,1.58a17.1,17.1,0,0,1-10.76,7.17l-.88-1.53A16.62,16.62,0,0,0,1396.09,255.54Zm.74-6.78-.89,1.28c-.76-.55-2.35-1.6-3.26-2.12l.85-1.29C1394.45,247.15,1396.12,248.25,1396.83,248.76Zm4.47.44-1,.45a13.69,13.69,0,0,0-1.34-2.34l1-.43A21.49,21.49,0,0,1,1401.3,249.2Zm2-.77-1,.46a13.94,13.94,0,0,0-1.39-2.29l1-.43A21.92,21.92,0,0,1,1403.34,248.43Z"/><path class="cls-5" d="M1406.32,255.67h8.74a14.72,14.72,0,0,0,1.49-.08v1.79c-.49,0-1.07-.07-1.49-.07h-8.74c-.55,0-1.16,0-1.7.07v-1.79C1405.17,255.63,1405.77,255.67,1406.32,255.67Zm1.16-7.33h6.28c.56,0,1.14,0,1.54-.07V250c-.41,0-1,0-1.54,0h-6.27c-.53,0-1.11,0-1.59,0v-1.69C1406.39,248.31,1407,248.34,1407.48,248.34Z"/><path class="cls-5" d="M1430.44,248.7a14.86,14.86,0,0,1-3.65,4.1l-1.23-1a9.15,9.15,0,0,0,3-3.08h-8.15c-.6,0-1.12,0-1.76.09v-1.66a12.42,12.42,0,0,0,1.76.14h8.32a7.6,7.6,0,0,0,1.23-.11l.94.88C1430.79,248.24,1430.56,248.52,1430.44,248.7Zm-9.66,10.1-1.37-1.12a5.54,5.54,0,0,0,1.43-.73c2.13-1.36,2.47-3.24,2.47-5.71a6.14,6.14,0,0,0-.09-1.19h1.7C1424.92,253.93,1424.69,256.79,1420.78,258.8Z"/><line class="cls-7" x1="1361.66" y1="197.65" x2="1559.65" y2="197.65"/><path class="cls-5" d="M1367.5,303.42c0,.36,0,.83-.06,1.37a18.35,18.35,0,0,0,2.93-.57l0,1.46c-.86.19-2,.37-3,.49,0,.6,0,1.19,0,1.73v.52a11.78,11.78,0,0,1,3.1-.48c2.22,0,3.88,1.19,3.88,3.1s-1,3-3.21,3.52a11.54,11.54,0,0,1-1.89.23l-.54-1.52a8.76,8.76,0,0,0,1.79-.1c1.25-.24,2.33-.9,2.33-2.15s-1-1.78-2.38-1.78a10.19,10.19,0,0,0-3,.49c0,1.23.06,2.48.06,3.08,0,1.57-.58,2-1.45,2-1.3,0-3.28-1.19-3.28-2.62,0-1.27,1.53-2.59,3.29-3.35V308c0-.52,0-1.09,0-1.65-.38,0-.7,0-1,0-.9,0-1.47,0-2-.07l0-1.43a15.86,15.86,0,0,0,2,.12c.32,0,.66,0,1-.05,0-.67,0-1.2,0-1.47a10.88,10.88,0,0,0-.09-1.18h1.63C1367.58,302.56,1367.53,303.06,1367.5,303.42Zm-1.9,9.83c.3,0,.5-.19.5-.68s0-1.34,0-2.31c-1.09.54-1.86,1.3-1.86,1.89S1365.09,313.25,1365.6,313.25Zm10-7.2-.73,1.19a21.88,21.88,0,0,0-3.43-2.2l.65-1.13A26.41,26.41,0,0,1,1375.58,306.05Z"/><path class="cls-5" d="M1378.65,307.69v7.74h-1.37V302.36h5.48v5.33Zm0-4.23v1.05h2.8v-1.05Zm2.8,3.14v-1.11h-2.8v1.11Zm.34,6.74v.87h-1.28v-5.33h5.61v4.46Zm0-3.3v2.16h3V310Zm7.75,3.63c0,.83-.19,1.26-.73,1.5a8.36,8.36,0,0,1-2.77.24,4.51,4.51,0,0,0-.47-1.41c.94,0,1.9,0,2.2,0s.36-.11.36-.37v-6h-4.2v-5.34h5.61Zm-4.28-10.22v1.06h2.87v-1.06Zm2.87,3.17v-1.13h-2.87v1.13Z"/><path class="cls-5" d="M1394,305.37a33,33,0,0,0,.1,3.35c.22,2.33.83,3.91,1.83,3.91.74,0,1.4-1.62,1.74-3l1.17,1.39c-.93,2.54-1.85,3.42-2.94,3.42-1.5,0-2.89-1.43-3.29-5.34a39.72,39.72,0,0,1-.16-4,7.57,7.57,0,0,0-.12-1.4l1.81,0A13,13,0,0,0,1394,305.37Zm10.42,6.31-1.53.59c-.25-2.56-1.1-5.86-2.6-7.64l1.47-.5A16.2,16.2,0,0,1,1404.39,311.68Z"/><path class="cls-5" d="M1412.89,301.8a16.56,16.56,0,0,0,6.44,5.19,5.78,5.78,0,0,0-.9,1.24,19.15,19.15,0,0,1-2.41-1.51v1.06h-7.41v-1a20.1,20.1,0,0,1-2.4,1.51,5.33,5.33,0,0,0-.85-1.1,16.4,16.4,0,0,0,6.12-5.38Zm-5.13,7.66h9.16v6h-1.41v-.58h-6.4v.58h-1.35Zm8-2.92a17.26,17.26,0,0,1-3.51-3.39,16.09,16.09,0,0,1-3.34,3.39Zm-6.65,4.17v2.92h6.4v-2.92Z"/><path class="cls-5" d="M1424.06,302.33l1.74.06c-.09.39-.21,1.18-.32,2.15h0l.5.62c-.17.27-.46.7-.7,1.07,0,.24,0,.49,0,.73a7.5,7.5,0,0,1,4.58-1.71,3.82,3.82,0,0,1,4,3.87c0,3-2,4.67-5.48,5.34l-.69-1.41c2.56-.39,4.64-1.51,4.63-4a2.53,2.53,0,0,0-2.68-2.47,6.68,6.68,0,0,0-4.45,2c0,.55,0,1.07,0,1.55,0,1.29,0,2.35.07,3.7,0,.27,0,.7.08,1h-1.61c0-.27,0-.75,0-1,0-1.4,0-2.24.06-3.89-.7,1-1.57,2.3-2.2,3.16l-.92-1.29c.83-1,2.44-3.18,3.24-4.4,0-.42.06-.87.09-1.28l-2.83.37-.14-1.52a8.3,8.3,0,0,0,1.11,0c.46,0,1.24-.12,2-.23,0-.64.08-1.13.08-1.29A8.31,8.31,0,0,0,1424.06,302.33Z"/><path class="cls-5" d="M1445.8,303.87c0,.64,0,1.28,0,1.87l1.42-.1,1.28-.09V307c-.25,0-.91,0-1.3,0s-.87,0-1.42.06a21.41,21.41,0,0,1-.23,3.06c-.15.72-.49.91-1.2.91a18.63,18.63,0,0,1-2.09-.22l0-1.3a8.33,8.33,0,0,0,1.43.2c.34,0,.49-.06.52-.39a19.78,19.78,0,0,0,.15-2.16c-1.44.12-3.06.27-4.45.42,0,1.46,0,2.93,0,3.54,0,1.53.11,2,2.53,2a28.3,28.3,0,0,0,4.44-.37l0,1.59a41.8,41.8,0,0,1-4.3.25c-3.61,0-4-.8-4.06-3.26,0-.64,0-2.17,0-3.6l-1.34.15-1.63.23-.16-1.52c.45,0,1.06,0,1.68-.09l1.45-.13v-1.82a8.29,8.29,0,0,0-.11-1.43H1440a13,13,0,0,0-.07,1.36c0,.41,0,1,0,1.75l4.48-.42v-1.93a11,11,0,0,0-.1-1.22h1.59A8.13,8.13,0,0,0,1445.8,303.87Z"/><line class="cls-7" x1="1361.66" y1="332.81" x2="1559.65" y2="332.81"/><path class="cls-5" d="M858.82,90.17a17.29,17.29,0,0,0,6.44,5.6,6.8,6.8,0,0,0-.92,1.23,20.56,20.56,0,0,1-6.16-5.44,19,19,0,0,1-6,5.5,5.65,5.65,0,0,0-.88-1.11,17,17,0,0,0,6.12-5.78Zm.25,12h5.48v1.25H852v-1.25h1.76V96.88h1.35v5.34h2.52v-8h1.45V97.6h4.13v1.25h-4.13Z"/><path class="cls-5" d="M875,100.44a13.69,13.69,0,0,0,5,2,6.23,6.23,0,0,0-.92,1.24,13.25,13.25,0,0,1-5.33-2.8v3h-1.35V101a14.74,14.74,0,0,1-5.28,2.68,6,6,0,0,0-.91-1.17,14.63,14.63,0,0,0,5-2.07h-4.59V99.28h5.77v-.91h-4.39v-1h4.39v-.89h-5.12v-1.1h3a7.52,7.52,0,0,0-.62-1.36l.35-.06h-3.37V92.76h2.2a11.42,11.42,0,0,0-1.09-2l1.21-.4a10.51,10.51,0,0,1,1.19,2.13l-.76.28h1.63V90.22h1.3v2.54h1.47V90.22h1.31v2.54h1.61l-.57-.18a12.31,12.31,0,0,0,1-2.2l1.43.36c-.4.73-.85,1.47-1.23,2h2.14v1.16h-2.87c-.28.51-.58,1-.83,1.42h3.15v1.1h-5.27v.89h4.57v1h-4.57v.91h5.86v1.16Zm-3.83-6.52a5.91,5.91,0,0,1,.64,1.33l-.43.09h3.14a14.41,14.41,0,0,0,.66-1.42Z"/><path class="cls-5" d="M881,96.94a19.91,19.91,0,0,0,.64-3.82l1,.12a20.22,20.22,0,0,1-.6,4Zm3.87-2.07a19.72,19.72,0,0,0-.76-2.08v11.09h-1.26V90.25h1.26v2.42l.86-.34a18,18,0,0,1,.84,2.1Zm9.92.09v1h-9.64V95h4.08V94.1H886v-1h3.27v-.77h-3.63v-1h3.63v-1.1h1.37v1.1h3.76v1h-3.76v.77H894v1h-3.38V95Zm-1.08,7.5c0,.63-.14,1-.58,1.18a6.5,6.5,0,0,1-2.19.2,5.14,5.14,0,0,0-.4-1.18c.68,0,1.4,0,1.59,0s.27-.07.27-.25v-.8h-4.93v2.25h-1.27V96.72h7.51Zm-6.24-4.7v.92h4.93v-.92Zm4.93,2.87v-.92h-4.93v.92Z"/><path class="cls-5" d="M900.1,94.12h2.61v1.17h-1.39l.64.16c-.25.63-.52,1.28-.75,1.76h1.32V98.4H900.1v1.4h2.24V101H900.1v2.87h-1.29V101h-2.34V99.8h2.34V98.4h-2.47V97.21h1.3a6.79,6.79,0,0,0-.57-1.76l.61-.16h-1.59V94.12h2.72v-1.3h-2.19V91.66h2.19v-1.4h1.29v1.4h2.06v1.16H900.1Zm0,3c.2-.51.47-1.25.62-1.79h-2.57a7.4,7.4,0,0,1,.58,1.79l-.5.13h2.37Zm9.23-.91a14.38,14.38,0,0,1-1.68,4.85,7.36,7.36,0,0,0,2.22,1.77,5.12,5.12,0,0,0-.92,1.1,8.14,8.14,0,0,1-2.06-1.76,8.43,8.43,0,0,1-1.81,1.77,4.37,4.37,0,0,0-.76-.8v.79h-1.25v-13H909V93.7c0,.64-.13,1-.65,1.19a7.61,7.61,0,0,1-2.37.19,4.8,4.8,0,0,0-.41-1.19c.84,0,1.63,0,1.85,0s.29-.06.29-.23V92.11h-3.38v3.81h3.94l.23-.06Zm-5,6.68a7.72,7.72,0,0,0,1.77-1.79,15.21,15.21,0,0,1-1.77-4Zm1.16-5.8a13,13,0,0,0,1.32,2.85,11.91,11.91,0,0,0,1.06-2.85Z"/><path class="cls-5" d="M856.64,143.66a22,22,0,0,1-1.51,2.88v10.18H853.7v-8.14a15.29,15.29,0,0,1-1.78,1.95,8.31,8.31,0,0,0-.79-1.38,16.43,16.43,0,0,0,4.2-5.93Zm4,5.14c.48,3.65,1.37,6.1,2.78,6.27.38,0,.6-.81.73-2.49a4,4,0,0,0,1.15.76c-.34,2.69-1,3.42-1.82,3.38-2.48-.21-3.64-3.16-4.21-7.72l-3.25.41-.21-1.31,3.33-.41c-.12-1.36-.21-2.81-.27-4.38h1.4c0,1.49.12,2.91.24,4.19l4.36-.56.18,1.3Zm3-2.38a14.3,14.3,0,0,0-2.23-2.45l1-.66a14.47,14.47,0,0,1,2.3,2.38Z"/><path class="cls-5" d="M879.36,151.07a23.83,23.83,0,0,1-3.05,2,7.63,7.63,0,0,0,3.78,2.4,5.4,5.4,0,0,0-.9,1.23c-3.12-1.08-4.92-3.39-5.93-6.72a14.18,14.18,0,0,1-2.09,1.64v3.08l3.47-.81.15,1.24c-2.32.59-4.84,1.19-6.62,1.6l-.45-1.28c.6-.11,1.3-.28,2.07-.44v-2.59a16.26,16.26,0,0,1-2.77,1.17,7.31,7.31,0,0,0-.89-1.14,16.7,16.7,0,0,0,5.4-2.6h-4.88v-1.19h5.76v-1.12h-4.54v-1.13h4.54v-1H867.2v-1.19h5.21v-1.12h1.38v1.12h5.33v1.19h-5.33v1h4.76v1.13h-4.76v1.12h5.81v1.19h-5.05a10.38,10.38,0,0,0,1.09,2.33,21,21,0,0,0,2.6-2Z"/><path class="cls-5" d="M891.44,152.91A5.19,5.19,0,0,0,895,155.6a4.62,4.62,0,0,0-.84,1.13,5.89,5.89,0,0,1-3.63-3,6.58,6.58,0,0,1-4,3,4.19,4.19,0,0,0-.79-1c2.23-.76,3.26-1.77,3.72-2.8h-3.39v-1.2h3.72a7.11,7.11,0,0,0,.05-.78v-1h-1.6a8.28,8.28,0,0,1-1.1,1.47,7.44,7.44,0,0,0-1-.7l-1.5.43v4c0,.71-.15,1.08-.6,1.31a5.38,5.38,0,0,1-2.08.22,4.62,4.62,0,0,0-.39-1.27c.63,0,1.24,0,1.43,0s.28-.06.28-.28v-3.62l-1.88.54-.35-1.36c.63-.13,1.4-.32,2.23-.55v-2.94h-2V146h2v-2.89h1.36V146h1.53v1.28h-1.53v2.57l1.62-.46.13,1a8.91,8.91,0,0,0,1.67-3.08l1.28.29a12,12,0,0,1-.45,1.18h5.34V150H891.1v1c0,.24,0,.49,0,.75h3.66v1.2Zm-5.19-6.83,1.32,0a19.88,19.88,0,0,0,1.31-3l1.45.36c-.41.85-.9,1.78-1.36,2.57l3.33-.15c-.34-.4-.71-.79-1-1.13l1-.62a18.68,18.68,0,0,1,2.68,3.11l-1.1.71a7.74,7.74,0,0,0-.6-.89c-2.48.12-5,.24-6.87.31Z"/><path class="cls-5" d="M901.09,150.71l-1.7.5v4c0,.7-.15,1.06-.56,1.28a5.36,5.36,0,0,1-2.09.22,5.06,5.06,0,0,0-.38-1.25c.62,0,1.23,0,1.42,0s.29-.06.29-.28v-3.6l-1.8.52-.35-1.36c.6-.13,1.34-.32,2.15-.55v-3h-2V146h2v-2.89h1.32V146h1.55v1.28h-1.55v2.62l1.55-.44Zm7.32-.8.89.35c-1.16,3.9-4.11,5.67-7.77,6.5a5.38,5.38,0,0,0-.67-1.16,11,11,0,0,0,4.1-1.53,17,17,0,0,0-2.15-1.65,12.81,12.81,0,0,1-1.37.85,3.71,3.71,0,0,0-.8-1,8.3,8.3,0,0,0,3.91-3.69l1.13.21a15,15,0,0,0-1.9-2.92,25.5,25.5,0,0,0,1.71-2.79l1.29.31c-.47.83-1.07,1.71-1.6,2.47a17.9,17.9,0,0,1,1.8,2.6l-1.09.4a8.7,8.7,0,0,1-.65,1.09h2.93Zm-5.54-.87a16,16,0,0,0-1.8-3.11,24.9,24.9,0,0,0,1.67-2.85l1.26.31a28.44,28.44,0,0,1-1.54,2.53,18.39,18.39,0,0,1,1.66,2.66Zm1.44,2.05a4.93,4.93,0,0,1-.56.56,19,19,0,0,1,2.23,1.62,6.68,6.68,0,0,0,1.58-2.18Zm4.32-2.05a17,17,0,0,0-2.17-3.11,25.65,25.65,0,0,0,1.84-2.85l1.3.32c-.49.84-1.15,1.74-1.7,2.52a16,16,0,0,1,2,2.62Z"/><path class="cls-5" d="M853.27,181.81a13.64,13.64,0,0,1-1,3.79,7,7,0,0,0-1.06-.52,11.14,11.14,0,0,0,.88-3.48Zm1.67-1.16v6.11H853.7v-6l-2.24.14-.12-1.22,1,0c.27-.36.57-.76.85-1.18a13.67,13.67,0,0,0-1.85-2.08l.67-.91.4.34a15.57,15.57,0,0,0,1.22-2.69l1.22.48c-.52,1-1.14,2.14-1.68,3a10.06,10.06,0,0,1,.72.82c.53-.88,1-1.79,1.41-2.55l1.15.52c-.84,1.36-1.91,3-2.88,4.23l1.86-.09c-.19-.42-.4-.83-.61-1.21l.94-.38a11.27,11.27,0,0,1,1.36,3.08l-1,.44a5.6,5.6,0,0,0-.23-.8Zm1.28.83a18.53,18.53,0,0,1,.94,2.69l-1.06.36a16.08,16.08,0,0,0-.88-2.72Zm8.31-7.32A9.19,9.19,0,0,1,862,178a10.09,10.09,0,0,0,3.27,1.3,4.87,4.87,0,0,0-.83,1.15,11.24,11.24,0,0,1-3.52-1.61,13.15,13.15,0,0,1-3.48,1.66,5.2,5.2,0,0,0-.77-1.16,11.61,11.61,0,0,0,3.18-1.38,9.38,9.38,0,0,1-2-2.72l.82-.27h-1.66v-1.19h6.29l.27-.06Zm-2.87,10.94h3.44v1.22h-8.41V185.1h3.6V183h-2.67v-1.22h2.67v-2h1.37v2h2.79V183h-2.79ZM859.19,175a7.47,7.47,0,0,0,1.71,2.22,8,8,0,0,0,1.78-2.22Z"/><path class="cls-5" d="M879.39,175.41v3h-1.33v-1.83h-9.73v1.83h-1.28v-3h2a10.3,10.3,0,0,0-1.12-1.6l1.21-.51a9.43,9.43,0,0,1,1.35,1.9l-.46.21h2.63a11,11,0,0,0-1-1.95l1.2-.41a8.86,8.86,0,0,1,1.16,2l-.88.34h2.61a16,16,0,0,0,1.43-2.21l1.47.46c-.46.61-1,1.23-1.4,1.75Zm-5.69,5.64c-.15.37-.29.74-.43,1.07h5.09v4.63H877v-.52h-7.46v.53H868.2v-4.64h3.72c.1-.34.19-.73.28-1.07h-2.89v-3.5h7.79v3.5Zm3.28,2.28h-7.46V185H877ZM870.59,180h5.15v-1.43h-5.15Z"/><path class="cls-5" d="M886.13,183.71c-1.62.57-3.35,1.15-4.69,1.58l-.32-1.41c.53-.15,1.19-.33,1.9-.55v-3.78h-1.61v-1.28H883v-3h-1.75V174H886v1.28h-1.65v3h1.41v1.28h-1.41v3.36c.5-.16,1-.33,1.54-.51Zm8.79,1.3v1.26h-9.5V185h4.31v-1.77H886.5V182h3.23v-1.53h-3.09v-6.7h7.61v6.7h-3.11V182h3.31v1.25h-3.31V185Zm-7-8.47h2v-1.6h-2Zm0,2.74h2v-1.62h-2Zm5-4.34H891v1.6h1.9Zm0,2.72H891v1.62h1.9Z"/><path class="cls-5" d="M900.22,176.47a19.24,19.24,0,0,1-3.4,1.77,5.93,5.93,0,0,0-.79-1.18,14.33,14.33,0,0,0,6-3.95h1.41a14.6,14.6,0,0,0,6.31,3.79,6.4,6.4,0,0,0-.86,1.26,20.51,20.51,0,0,1-3.41-1.71v.9h-5.27Zm-4.16,8.95a5.88,5.88,0,0,0,2-3.34l1.23.4a6.8,6.8,0,0,1-2.1,3.75Zm11.32-6.68a16.24,16.24,0,0,1-2.34,3.47,10.14,10.14,0,0,0-1-.64,14.67,14.67,0,0,0,1.49-2.16h-7.4v-1.17h8.14l.22-.06Zm-3.17,6.55c.58,0,.67-.19.73-1.68a4.26,4.26,0,0,0,1.24.51c-.15,1.93-.54,2.42-1.85,2.42h-2.4c-1.59,0-2-.4-2-1.71v-2.65h1.37v2.65c0,.4.12.46.77.46Zm1-9a12.68,12.68,0,0,1-2.38-1.95,12.32,12.32,0,0,1-2.27,1.95Zm-3.61,4.21a9.7,9.7,0,0,1,2.9,1.92l-1,1a9.72,9.72,0,0,0-2.81-2Zm5.32,1.43a12.7,12.7,0,0,1,2.77,3.42l-1.25.77a12.51,12.51,0,0,0-2.65-3.51Z"/><path class="cls-5" d="M854.76,207.81a18.41,18.41,0,0,1-2.59,1.54,5.12,5.12,0,0,0-.82-1.13,15.07,15.07,0,0,0,6.09-5.11h1.43a15,15,0,0,0,6.36,4.91,6.49,6.49,0,0,0-.87,1.25,19.09,19.09,0,0,1-2.64-1.55v1.16h-7Zm-2.56,2.62h12.22v1.29H857.6c-.49,1-1,2.11-1.58,3.07l5.32-.21a20.78,20.78,0,0,0-1.73-1.77l1.19-.64a18.77,18.77,0,0,1,3.45,3.82l-1.26.79c-.17-.28-.39-.61-.66-1-3.54.18-7.32.34-9.85.45l-.18-1.36,2.21-.07a25.54,25.54,0,0,0,1.38-3.11H852.2Zm9.36-2.83a15,15,0,0,1-3.35-3.15A14.32,14.32,0,0,1,855,207.6Z"/><path class="cls-5" d="M871.8,212.58c-.34-.43-1-1.14-1.62-1.75v5.92h-1.37v-5.49a12.93,12.93,0,0,1-2.08,1.66,6.68,6.68,0,0,0-.69-1.27,12.26,12.26,0,0,0,4.42-4.56h-3.9v-1.26h2.25v-2.74h1.37v2.74h1l.24-.05.78.52a13.81,13.81,0,0,1-1.85,3.2c.7.57,1.93,1.64,2.28,1.95Zm8.3,2.38v1.37h-8.33V215h3.6v-5.83h-3v-1.34h3v-4.58h1.41v4.58h3v1.34h-3V215Z"/><path class="cls-5" d="M893.73,215.47a.36.36,0,0,0,.27-.08.62.62,0,0,0,.12-.34,12.7,12.7,0,0,0,0-1.57,3.92,3.92,0,0,0,.88.49,14.27,14.27,0,0,1-.12,1.84,1,1,0,0,1-.41.64,1.46,1.46,0,0,1-.69.16h-.67a1.14,1.14,0,0,1-.82-.26c-.22-.21-.26-.45-.26-1.18v-1.72a10.68,10.68,0,0,1-3.07,3.28,6,6,0,0,0-.89-.84,11.31,11.31,0,0,0,1.46-1.21l-.42.16a7,7,0,0,0-.21-.81c-1.2.47-2.45.95-3.48,1.32l-.53-1.25c.28-.07.61-.18,1-.28v-3.39l-.66,1.07a15.17,15.17,0,0,0-.89-1.43v6.66h-1.28v-6a14.58,14.58,0,0,1-1.37,3.32,7.19,7.19,0,0,0-.67-1.19,18.19,18.19,0,0,0,1.94-5.47h-1.64v-1.25h1.74v-3.07h1.28v3.07h1.24v1.25h-1.24v1.14c.36.33,1.25,1.33,1.55,1.7v-6.37h3.7v6.37H887v3.21l1.57-.49c-.21-.55-.44-1.12-.67-1.61L889,211a21.16,21.16,0,0,1,1.2,3,9.37,9.37,0,0,0,1.89-3.62h-2.26v-1.19h.65V205h-.56v-1.19h4.75V205h-1v1.31a19.49,19.49,0,0,1-.18,2.84h1.34v1.19h-1.56c0,.13-.08.25-.11.39v4.39a.37.37,0,0,0,.06.23.3.3,0,0,0,.23.08ZM887,205v1.47h1.42V205Zm1.42,4.13v-1.58H887v1.58Zm3.91.06a16.47,16.47,0,0,0,.21-2.86V205h-1v4.15Z"/><path class="cls-5" d="M906.76,212.23a6.44,6.44,0,0,1-1.66,2.17c1.57.41,3,.86,4,1.26l-.82,1.13a40.77,40.77,0,0,0-4.6-1.51,18.59,18.59,0,0,1-6.78,1.47,3.67,3.67,0,0,0-.52-1.21,21.06,21.06,0,0,0,5.33-.77c-.7-.18-1.42-.33-2.15-.49l-.23.33-1.33-.44c.42-.53.92-1.21,1.43-1.94h-3.29v-1.14h4.06c.27-.4.54-.8.76-1.17h-3.79v-4h3.24v-1.07h-4v-1.22h12.75v1.22h-4.09V206h3.54v4h-6.36l.22.06c-.22.36-.46.73-.71,1.11h7.78v1.14Zm-8.25-3.43h2v-1.72h-2Zm2.58,3.43c-.26.35-.51.71-.75,1.05,1.06.21,2.13.45,3.16.7a5,5,0,0,0,1.71-1.75Zm.7-6.27h2.06v-1.07h-2.06Zm2.06,2.84v-1.72h-2.06v1.72Zm1.31-1.72v1.72h2.18v-1.72Z"/><line class="cls-7" x1="850.82" y1="121.54" x2="1048.81" y2="121.54"/><path class="cls-5" d="M365.56,242.63l2.26.46c-.14.5-.32,1.26-.42,1.7a42.64,42.64,0,0,1-1.76,6.16,29,29,0,0,1-2.94,5.58l-2.18-.92a25.64,25.64,0,0,0,3.1-5.48A30.19,30.19,0,0,0,365.56,242.63Zm5,.44,2.06-.68c.82,1.5,2.14,4.4,2.94,6.42s1.82,5,2.36,6.92l-2.28.74a68.23,68.23,0,0,0-2.18-7A53.36,53.36,0,0,0,370.58,243.07Zm6-3.31a2.33,2.33,0,0,1,2.32,2.33,2.31,2.31,0,1,1-2.32-2.33Zm0,3.57a1.26,1.26,0,0,0,1.26-1.24,1.28,1.28,0,0,0-1.26-1.26,1.26,1.26,0,0,0-1.24,1.26A1.25,1.25,0,0,0,376.54,243.33Z"/><path class="cls-5" d="M391.92,242.23c0,.48,0,1.06,0,1.74h2.86a16.09,16.09,0,0,0,1.86-.14v2.1c-.54,0-1.26,0-1.76,0H392c.06,3,.14,6.66.16,9.24,0,1.16-.68,1.8-2,1.8-1.1,0-2.26-.06-3.32-.12l-.16-2.06a20.34,20.34,0,0,0,2.74.22c.54,0,.74-.26.74-.8,0-1.5,0-4-.06-6.44a27.71,27.71,0,0,1-8.5,7.16l-1.44-1.64a24.39,24.39,0,0,0,9-7.36H383q-1.05,0-2,.06v-2.12a15.69,15.69,0,0,0,2,.14h7c0-.66,0-1.26-.06-1.74a15.17,15.17,0,0,0-.18-1.82H392A11.11,11.11,0,0,0,391.92,242.23Z"/><path class="cls-5" d="M412.08,243.81a27.37,27.37,0,0,1-3.28,5.7,53.16,53.16,0,0,1,5.72,5.86l-1.76,1.56a44.88,44.88,0,0,0-5.3-5.84,26.25,26.25,0,0,1-7.7,5.76l-1.62-1.7a22.47,22.47,0,0,0,8.22-5.86,16.45,16.45,0,0,0,3.18-5.28H402.2c-.78,0-1.86.1-2.18.12v-2.26a21.4,21.4,0,0,0,2.18.14h7.42a6.07,6.07,0,0,0,1.74-.2l1.3,1A6.9,6.9,0,0,0,412.08,243.81Z"/><path class="cls-5" d="M424.38,242.25l-.22.4H429a4.66,4.66,0,0,0,1.5-.22l1.62,1a11.85,11.85,0,0,0-.54,1.24,22.9,22.9,0,0,1-3.06,6c.84.6,1.62,1.2,2.24,1.7l-1.48,1.76c-.56-.52-1.32-1.14-2.14-1.8a19.05,19.05,0,0,1-7.42,4.94l-1.82-1.6a17,17,0,0,0,7.56-4.6c-1.38-1-2.82-2-4-2.72l1.38-1.42c1.2.7,2.6,1.6,3.94,2.52a16.39,16.39,0,0,0,2.5-5H423a22.65,22.65,0,0,1-5.28,5.24l-1.7-1.32a18.28,18.28,0,0,0,6.4-6.83,9,9,0,0,0,.76-1.79l2.28.71C425,241.07,424.6,241.85,424.38,242.25Z"/><path class="cls-5" d="M437.66,250.13l-1.9.7a40.85,40.85,0,0,0-1.82-4.56l1.88-.68C436.28,246.51,437.28,249,437.66,250.13ZM447.4,247a16,16,0,0,1-2.8,6,15.5,15.5,0,0,1-6.58,4.84l-1.66-1.7a13.63,13.63,0,0,0,6.56-4.22,13.88,13.88,0,0,0,2.66-6.84l2.2.7C447.6,246.33,447.48,246.69,447.4,247Zm-5.32,1.88-1.88.68a36.58,36.58,0,0,0-1.6-4.4l1.88-.62C440.84,245.39,441.82,248,442.08,248.89Z"/><path class="cls-5" d="M464.16,244.09a19.83,19.83,0,0,1-3,7.34,15.41,15.41,0,0,1-8,5.42L451.5,255a13.19,13.19,0,0,0,7.82-4.76,13.81,13.81,0,0,0,2.5-6.14H452c-.86,0-1.66,0-2.16.08v-2.24a17.94,17.94,0,0,0,2.16.16h9.7a5.1,5.1,0,0,0,1.28-.14l1.54,1A6.08,6.08,0,0,0,464.16,244.09Z"/><path class="cls-5" d="M473.58,257.31l-1.7-1.6c3.74-1.38,5.5-3.1,5.5-8.4v-.8H472.1v3a17.78,17.78,0,0,0,.1,1.94H470c0-.28.1-1.1.1-1.94v-3h-2c-.94,0-1.76,0-2.08.08v-2.18a12.43,12.43,0,0,0,2.08.16h2v-2.3a11,11,0,0,0-.12-1.6h2.26a10.65,10.65,0,0,0-.12,1.6v2.3h5.28v-2.32a14.15,14.15,0,0,0-.1-1.75h2.26a13.38,13.38,0,0,0-.12,1.75v2.32h1.88a13.18,13.18,0,0,0,2-.12v2.12c-.31,0-1-.06-2-.06h-1.9v.68C479.42,252.35,478.26,255.21,473.58,257.31Z"/><path class="cls-5" d="M488.88,247.43h10.88c1,0,1.75-.08,2.25-.12v2.48c-.44,0-1.36-.1-2.25-.1H488.88c-1.1,0-2.3,0-3,.1v-2.48C486.56,247.35,487.8,247.43,488.88,247.43Z"/><path class="cls-5" d="M509,242.91v4.18a54.92,54.92,0,0,0,7.3-2.34,11,11,0,0,0,1.94-1l.88,2c-.66.26-1.46.62-2.09.86a78.28,78.28,0,0,1-8,2.52v4.08c0,1,.42,1.2,1.36,1.4a17.25,17.25,0,0,0,2.5.14,33.5,33.5,0,0,0,6.91-.66v2.3a58.74,58.74,0,0,1-7,.4,21.79,21.79,0,0,1-3.28-.2c-1.62-.3-2.54-1.1-2.54-2.78V242.91a11.94,11.94,0,0,0-.14-1.84h2.34A18.15,18.15,0,0,0,509,242.91Zm10.57.16-1.3.56a24.15,24.15,0,0,0-1.61-2.76l1.3-.54A29.8,29.8,0,0,1,519.55,243.07Zm2.3-.86-1.3.56a18.63,18.63,0,0,0-1.62-2.74l1.28-.54A23.67,23.67,0,0,1,521.85,242.21Z"/><path class="cls-5" d="M536.86,243.81a26.93,26.93,0,0,1-3.28,5.7,53.33,53.33,0,0,1,5.73,5.86l-1.77,1.56a44.88,44.88,0,0,0-5.3-5.84,26.25,26.25,0,0,1-7.7,5.76l-1.62-1.7a22.47,22.47,0,0,0,8.22-5.86,16.45,16.45,0,0,0,3.18-5.28H527c-.78,0-1.86.1-2.18.12v-2.26A21.4,21.4,0,0,0,527,242h7.42a6.07,6.07,0,0,0,1.74-.2l1.3,1A7.91,7.91,0,0,0,536.86,243.81Z"/></g></g></svg>